<?xml version="1.0" encoding="utf-8"?>
<!-- Generator: Adobe Illustrator 26.5.0, SVG Export Plug-In . SVG Version: 6.00 Build 0)  -->
<svg version="1.1" id="Layer_1" xmlns="http://www.w3.org/2000/svg" xmlns:xlink="http://www.w3.org/1999/xlink" x="0px" y="0px"
	 viewBox="0 0 1000 1000" style="enable-background:new 0 0 1000 1000;" xml:space="preserve">
<style type="text/css">
	.st0{fill:#234234;}
	.k-graphic{
  		fill: #E23544;
		display: none;
  	}
    .h-graphic{
  		fill: #E23544;
		display: none;
  	}
	.is-initial{
		display: block;
  	}
</style>
<g>
	<path class="k-graphic is-initial" d="M360.8,500.4l115.8-205.1c8.5-15.9,13.8-35.1,13.8-55.2c0-64.8-52.1-116.9-116.9-116.9
		c-43.6,0-81.8,23.4-102,59.5L163.2,375c-3.2,5.3-6.4,7.4-10.6,7.4c-5.3,0-10.6-4.2-10.6-10.6c0-2.1,1.1-5.3,2.1-7.4l86.1-150.9
		c-11.7-52.1-58.4-90.3-113.7-90.3c-64.8,0-116.9,52.1-116.9,116.9v520.7c0,64.8,52.1,116.9,116.9,116.9
		c55.3,0,102-38.3,113.7-90.3l-86.1-150.9c-1.1-2.1-2.1-5.3-2.1-7.4c0-6.4,5.3-10.6,10.6-10.6c4.2,0,7.4,2.1,10.6,7.4l108.4,192.3
		c20.2,36.1,58.5,59.5,102,59.5c64.8,0,116.9-52.1,116.9-116.9c0-20.2-5.3-39.3-13.8-55.3L360.8,500.4z M298.5,239.7
		c0-41.5,33.7-75.2,75.2-75.2c41.5,0,75.2,33.7,75.2,75.2c0,41.5-33.7,75.2-75.2,75.2C332.2,314.9,298.5,281.2,298.5,239.7z M402.7,239.7c0,35.9-13,65-29,65c-16,0-29-29.1-29-65c0-4.8,0.2-9.5,0.7-14c8.1-0.5,14.5-7.2,14.5-15.3
		c0-5.8-3.2-10.8-8-13.4c5.3-13.7,13.1-22.3,21.8-22.3C389.7,174.7,402.7,203.8,402.7,239.7z"/>
	<path class="h-graphic is-initial" d="M883.7,123.2c-64.8,0-116.9,52.1-116.9,116.9v164.7h58.4c6.4,0,10.6,4.3,10.6,10.6
		c0,6.4-4.3,10.6-10.6,10.6H687.1c-6.4,0-10.6-4.3-10.6-10.6c0-6.4,4.3-10.6,10.6-10.6h58.4V240.1c0-64.8-52.1-116.9-116.9-116.9
		s-116.9,52.1-116.9,116.9v520.7c0,64.8,52.1,116.9,116.9,116.9s116.9-52.1,116.9-116.9V596.1h-58.4c-6.4,0-10.6-4.3-10.6-10.6
		c0-6.4,4.3-10.6,10.6-10.6h138.1c6.4,0,10.6,4.3,10.6,10.6c0,6.4-4.3,10.6-10.6,10.6h-58.4v164.7c0,64.8,52.1,116.9,116.9,116.9
		s116.9-52.1,116.9-116.9V240.1C1000.5,175.3,948.5,123.2,883.7,123.2z M633,314.9c-41.5,0-75.2-33.7-75.2-75.2
		s33.7-75.2,75.2-75.2s75.2,33.7,75.2,75.2S674.4,314.9,633,314.9z M633,174.7c-8.7,0-16.5,8.7-21.8,22.3c4.7,2.6,7.9,7.6,7.9,13.4c0,8.2-6.4,14.8-14.4,15.3
		c-0.4,4.5-0.7,9.2-0.7,14c0,35.9,13,65.1,29,65.1c16,0,29-29.1,29-65.1S649,174.7,633,174.7z"/>


	<path class="k-graphic" d="M-0.9,569.4h49.4c21.1,0,29.2-14.4,29.2-60.4c0-46-7.3-62.3-29.2-62.3H-0.9V165h214.6v279.8h-25.1
		c-10.5,0-18.6,4.8-22.7,15.3c-3.2,6.7-5.7,16.3-6.5,28.8h82.6c37.3,0,38.1-6.7,51.8-44.1h-50.2V165h213.8v281.8h-34
		c-47.8,0-99.6,44.1-99.6,62.3c0,17.2,51,60.4,100.4,60.4h32.4v266.4h-213V571.3h50.2c-6.5-34.5-15.4-39.3-51.8-39.3h-81.8
		c0.8,11.5,3.2,20.1,5.7,25.9c4,8.6,12.1,13.4,22.7,13.4h25.1v264.5H-0.9V569.4z"/>
	<path class="h-graphic" d="M758,569.4h45.4c21.1,0,28.3-7.7,28.3-31.6V532H650.3v5.7c1.6,24,7.3,31.6,29.2,31.6h45.4v266.4H489.9V569.4
		h49.4c21.1,0,29.2-14.4,29.2-60.4c0-46-7.3-62.3-29.2-62.3h-49.4V165h234.9v281.8h-45.4c-21.9,0-27.5,8.6-29.2,33.5v8.6h181.4v-8.6
		c0-24.9-7.3-33.5-28.3-33.5H758V165h243v281.8h-55.1c-21.9,0-29.2,16.3-29.2,62.3c0,46,8.1,60.4,29.2,60.4h55.1v266.4H758V569.4z"
		/>


	<path class="h-graphic" d="M1000.9,209.6c0,22.3,0,44.7,0,69.8c-15.6,0-31.3,0-48,0c0,64.1,0,125.5,0,189.6c14.9,0,30.7,0,47.2,0
		c0,24.7,0,46.6,0,71.4c-15.4,0-31.2,0-47.5,0c0,64.1,0,125.5,0,188.3c15.1,0,30,0,47.9,0c0.8,24.1,0.1,47,0.5,71.2
		c-69.1,0-137,0-207.2,0c1.2-22.3-6.4-46.4,6.3-69.4c15.8,0,30.8,0,46.9,0c0-41.6,0-82,0-123.9c0.5,0.6-0.1-0.5-0.9-1.2
		c-0.7-0.7-1.7-1.3-2.6-1.3c-48.7-0.1-97.4-0.1-147.1-0.1c0,41.6,0,82,0,125.1c14.7,0,30.4,0,45.8,0c14.2,22.8,5.3,46.9,8.8,70.6
		c-70,0-138.6,0-207.8,0c0-23,0-44.9,0-68.2c15.3,0,30.3,0,46.8,0c0-63.6,0-125.9,0-189.6c-14.7,0-29.7,0-46,0
		c0-24.2,0-47.1,0-71.4c15.2,0,30.2,0,46.3,0c0-63.7,0-126,0-189.6c-15.6,0-30.6,0-47.7,0c0-24.6,0-47.9,0-71.2
		c69.2,0,138.5,0,207.7,0c0,20.6,0,41.2,0,59.2c-4.1,5.4-6.3,8.1-9.4,12.2c-13.9,0-28.9,0-44.4,0c0,42.5,0,83.6,0,123.9
		c51.3,0,101.4,0,150.7,0c0-42.2,0-82.4,0-123.9c-15.8,0-30.7,0-44.1,0c-4.3-5.1-7.3-8.7-10-11.9c0-20.2,0-39.8,0-59.4
		C862.4,209.6,931.7,209.6,1000.9,209.6z M696,531.7c52,0,101.5,0,150.6,0c0-18.9,0-36.5,0-52.8c-51,0-100.6,0-150.6,0
		C696,496.8,696,513.5,696,531.7z"/>
	<path class="k-graphic" d="M456,596.1c0,21,0,41.4,0,61.3c-33.4,0-64.7,0-98,0c0-21.2,0-41.6,0-63.1c-19.2,0-36.2,0-52.9,0
		c0-42.7,0-84,0-126.6c16.5,0,31.5,0,45.3,0c3.2-4.2,5.4-6.9,8.6-11.1c0-18,0-37.3,0-59.4c16.7,0,32.5,0,49.2,0
		c0-22.1,0-41.5,0-63.5c16.8,0,32.5,0,47,0c0-24.8,0-46.7,0-70c-32.3,0-63.6,0-97,0c0-21.6,0-42,0-62c-37.5,0-72.8,0-108.9,0
		c0,20.2,0,39.6,0,59.1c2.7,3.5,5.5,7.2,9.4,12.3c14,0,29,0,44.2,0c0,41.7,0,82.1,0,125.2c-18.3,0-36.1,0-54.8,0
		c0,22.1,0,41.5,0,63.5c-16.7,0-32.5,0-49.2,0c0,22.1,0,41.5,0,60.4c-16.8,0-32.5,0-49.1,0c0-108,0-214,0-321.4
		c-49.7,0-98.4,0-147.1,0.1c-0.9,0-1.9,0.6-2.6,1.3c-0.8,0.7-1.4,1.8-1,1.2c0,23.5,0,45.5,0,68.7c16.1,0,31.1,0,46.6,0
		c0,174,0,346.7,0,520.7h7.4c0-0.2,0-0.5,0-0.7c33,0,65,0,98,0c0-43.1,0-83.4,0-125.1c16,0,31,0,44.9,0c3.9-5.1,6.8-8.8,10.8-13.9
		c0-18,0-37.3,0-57.1c14,0,26.9,0,40.9,0c0,20,0,39.4,0,57.3c3.9,5.1,6.8,8.8,10.8,13.9c13.9,0,28.9,0,44.9,0c0,20.7,0,40,0,63.5
		c18.2,0,33.2,0,49.2,0c0,20.7,0,40.1,0,60.1c35.1,0,69.1,0,104.1,0c0-41.9,0-82.3,0-124c16,0,31,0,44.8,0c4-5.1,6.9-8.8,8.7-11.1
		c0-20.8,0-40.2,0-59.8C492.1,596.1,475.1,596.1,456,596.1z"/>


	<path class="k-graphic" d="M495.8,706.4l-88.8,79.4c-40.6-23.4-77.5-67.7-77.5-114.5V533.5c0-42.6-68.1-81.1-100.2-96.1l-62.4,56v150.3
		c0,27.6,27.4,52.7,55.8,71l-79.4,71c-40.6-23.4-87-59.3-87-106.1c0,0,0-38.6,0-68.7c0-26.7-27.4-18.1-55.8-36.5l55.8-49.3V366.3
		c0-26.7-27.4-51.8-55.8-70.2l88.8-79.4c40.6,23.4,77.5,67.7,77.5,114.5v96.1l240.1-213.1l84.1,74.4l-84.1,75.2L359.7,322
		l-53.9,47.6C345.5,385.6,440,429.9,440,497.6v137.8C440,662.9,467.4,688,495.8,706.4z"/>
	<path class="h-graphic" d="M999.5,706.4l-88.8,79.4c-40.6-23.4-77.5-67.7-77.5-114.5V465.8c0-30.9-35.9-59.3-68.1-78.6l-94.5,83.6v172.9
		c0,27.6,27.4,52.7,55.8,71l-79.4,71c-40.6-23.4-87-59.3-87-106.1c0,0,0,1,0-55.9c0-27.6-27.4-52.7-55.8-71l55.8-49.3V366.3
		c0-26.7-27.4-51.8-55.8-70.2l88.8-79.4c40.6,23.4,77.5,67.7,77.5,114.5v73.6l122.9-108.7c0,0,150.3,49.3,150.3,133.7v205.5
		C943.7,662.9,971.1,688,999.5,706.4z"/>


	<path class="k-graphic" d="M268.6,390.7L232,500.4l36.6,109.7c17.1,49.1,34.3,61.7,72,61.7c35.4,0,53.7-24,53.7-86.9h57.1v204.6
		c0,80-29.7,110.9-86.9,110.9c-53.7,0-80-24-105.1-112l-78.9-270.9H57.2V569c0,78.9,18.3,102.9,80,102.9h24l52.6,228.6h-99.4
		C32,900.4,0,868.4,0,786.1V214.7c0-82.3,32-114.3,114.3-114.3h99.4L161.2,329h-24c-61.7,0-80,24-80,102.9v28.6h130.3l72-248
		c25.1-88,51.4-112,105.1-112c57.1,0,86.9,30.9,86.9,110.9v204.6h-57.1c0-62.9-18.3-86.9-53.7-86.9
		C302.9,329,285.8,341.6,268.6,390.7z"/>
	<path class="h-graphic" d="M885.8,100.4c82.3,0,114.3,32,114.3,114.3v571.4c0,82.3-32,114.3-114.3,114.3h-62.9V671.8h40
		c61.7,0,80-24,80-102.9v-51.4h-320V569c0,78.9,18.3,102.9,80,102.9h40v228.6H680c-82.3,0-114.3-32-114.3-114.3V214.7
		c0-82.3,32-114.3,114.3-114.3h62.9V329h-40c-61.7,0-80,24-80,102.9v28.6h320v-28.6c0-78.9-18.3-102.9-80-102.9h-40V100.4H885.8z"/>

	
	<path class="k-graphic" d="M308.5,464.7c-7.7,0.2-12.1-1.3-15-9.9c-4.8-14.5-15.3-24.5-30.2-28.8c-2.1-0.6-3.4-1.3-3.8-2
		c-0.4-0.8-0.2-2.3,0.6-4.7c0.1-0.3,0.3-0.7,0.4-1c0.2-0.4,0.4-0.9,0.6-1.3c2.3-6,4.6-11.9,7-17.9c5.4-13.6,10.9-27.7,15.5-41.9
		c5.2-16.2,10.7-35.7,12.5-56.7c2.4-27.1-2.6-47.9-15.6-65.3c-8.6-11.6-23.6-19-39.2-19.4c-14.6-0.4-27.8,5.6-37.1,16.9
		c-7.5,9.1-13.4,19.4-18,31.7c-8.5,22.5-14.6,45.9-18.1,69.6c-0.5,3.3-1.4,6.6-2.4,10c-0.1,0.5-0.3,1-0.4,1.5
		c-1.3-4.5-2.2-8.3-3-11.8c-5.6-26.4-15.2-51.2-28.8-73.5c-11.5-19-25-31.6-41.2-38.7c-17.5-7.6-34.6-7-50.9,1.7
		c-9.6,5.1-16.2,13.1-19.6,23.8c-4.3,13.2-3.6,27.2,2.1,45.3c3.8,11.9,8.8,23.6,13.8,35.1c3.8,8.8,7.8,17.7,11.6,26.3
		c6.7,14.9,13.6,30.3,19.7,45.7c3.8,9.7,6.5,20.2,9.1,30.3c1.1,4.5,2.3,9.2,3.6,13.8c0.4,1.4,0.4,2.4,0,3c-0.4,0.6-1.4,1-2.8,1.2
		c-20.7,2.7-34.6,16.1-44.4,27.5C10,503.4-1.7,535.2-0.4,569.5C-1,592.4,3.4,615.3,13,639.4c11,27.4,26.4,47.4,47.3,61
		c4.2,2.8,6.1,6.4,6.6,12.8c2.2,27.2,15.9,47.4,39.7,58.4c18.2,8.4,36.7,12.6,55.5,12.6c11.6,0,23.2-1.6,34.9-4.8
		c27.1-7.4,42.5-24.4,45.7-50.3c0.4-3.2,1.7-4.7,4.4-5.5c1.6-0.4,3.1-1.1,4.5-1.7c0.5-0.2,1-0.4,1.5-0.6
		c36.5-15.1,57.6-43.5,62.7-84.5c0.6-4.7,1.9-7.1,4.9-9c8.4-5.3,15.7-12.9,22.4-23.2c13.1-20.3,16.6-43.1,18.1-60.7
		c1-11.4-0.1-23.5-3.7-38C352.7,485,332.9,464,308.5,464.7z M158.1,452.9c-0.1,2.6-0.3,4-0.6,4.3c-0.2,0.1-0.9,0.4-3.9,0.2
		c-11.7-1.1-23.5-2.9-33.5-4.5c-3.8-0.6-7.6-1.7-11.3-2.8c-1.5-0.4-3-0.9-4.5-1.3c-3-0.8-4.5-2.4-5-5.1
		c-7.2-38.9-24-74.9-40.2-109.7l-0.5-1c-8.2-17.5-17.4-37.3-21.8-58.1c-3.7-17.4,1.6-30.9,14.8-37.9c4.7-2.5,9.9-3.7,15.5-3.7
		c4.9,0,10.1,0.9,15.6,2.8c16.4,5.5,27,18.9,34.4,29.9c14,21,21.5,44.4,27.6,66.6c8.9,32.7,11.1,66.8,13.2,99.9l0.1,2.3
		c0,1.8,0,3.7,0,5.5C158.2,444.4,158.2,448.7,158.1,452.9z M84.1,714.2c0.2,0,1-0.1,3.3,0.8c18.5,7.2,39.3,10.4,63.6,9.7
		c2.7-0.1,6.2,0.9,9.5,2.6c15,8,32,9.7,53.6,5.4c0.8-0.1,1.5-0.3,2.3-0.5c1.5-0.3,3-0.7,4.4-0.8c3.7-0.4,4.4,0.3,4.4,0.3
		c0,0,0.5,0.8-0.9,4.3c-4.3,11.1-11.2,18.8-21,23.3c-13.6,6.3-28.2,7.4-45.8,7l-0.1,0l-0.1,0c-10.9,0.5-24.9-2.2-37.5-7.2
		c-19.6-7.9-31.5-21.7-35.4-41.2C84,715.2,84.2,714.3,84.1,714.2z M183.2,717c-11.8-1.4-21.3-7-28.2-16.6c-0.7-1-1.5-2.1-2.2-3.2
		c-1.7-2.6-3.5-5.3-5.8-7.6c-1.7-1.7-5.4-3.1-7.5-3.1c0,0-0.1,0-0.1,0c-1.2,0-2,0.6-2.3,1c-2,2.4-3.4,6-3.4,9.1
		c0,2.1,1.1,3.9,2.1,5.4c0.4,0.6,0.8,1.2,1.1,1.9c1.1,2.3,1.2,3.3,1.2,3.6c-0.3,0.1-1.2,0.3-3.4,0.3c-12-0.4-23.9-2.6-35.3-6.3
		C67.5,691,44.1,669,29.9,636.2c-6.7-15.5-10.6-29.8-11.9-43.7c-0.3-3.1-0.8-6.1-1.2-9.1c-0.8-5.1-1.6-10-1.4-14.8
		c1.3-35.7,14.6-66.1,39.5-90.3c14.2-13.9,30.9-17.8,50.8-11.8c17,5,35.8,7.7,59.2,8.3l1.1,0c8.8,0.2,17.8,0.5,26.7,1.3
		c9,0.8,15.4,6.2,19.6,16.4c3.1,7.5,1.7,14.5-4.1,22c-9.3,11.8-22.6,19.2-41.9,23.3c-25.1,5.3-51.6,3.5-83.4-5.7
		c-2.9-0.8-5.9-1.8-8.7-2.7c-2.6-0.9-5.3-1.7-7.9-2.5c-5-1.5-8.7,0.3-10.1,4.8c-1.6,5.2,0.4,9.2,5.2,10.8c3,1,6,2,9,3.1
		c7.4,2.6,15.1,5.3,23,6.5c13.7,2,23.1,9.9,31.1,18.1c13.4,13.6,21.7,30.3,25.3,51c1.3,7.6-0.3,14.9-2.1,22.7
		c-0.6,2.7-1.3,5.5-1.8,8.3c-0.2,1.3-0.5,2.5-0.8,3.8c-0.6,2.8-1.3,5.6-1.3,8.6c-0.1,2.8,2.8,6.6,5.5,7.3c3,0.8,6.6-1.5,8.1-2.8
		c2.3-2.1,3.2-5.4,3.4-6.8c1.7-8.3,3.2-16.7,4.8-24.9l1.6-8.7l0-0.3c-0.5-22.9-8.9-44.1-25.7-64.8c-0.4-0.5-0.9-1.1-1.4-1.6
		c-0.7-0.8-1.3-1.5-1.8-2.2c-1-1.5-1-2.2-1.1-2.2c0.1-0.1,0.6-0.5,2.6-0.6c6.5-0.5,13.1-0.9,19.6-1.3l4.8-0.3
		c2.8-0.2,3.5,0.1,3.7,0.3c0.2,0.1,0.5,0.8,0.6,3.5l0.1,1.9c0.2,6.6,0.3,13.4,2.5,20.3c5.9,18.4,19.5,29.6,41.5,34.2
		c11.9,2.4,22.5,1.4,31.6-3.1c3.3-1.6,5.5-1,8.5,2.3c5.9,6.6,11.1,11.4,16.3,15.1c7.2,5.2,15.8,7.6,25.5,7.1c0.7,0,1.3,0,1.8,0
		c1.3,0,1.8,0.1,1.8,0.1c0.1,0.2,0.2,0.9-0.3,3.5c-2.6,13.7-6.8,29.5-18.3,42.2c-13.1,14.5-30.4,24.1-56,31
		C209.3,717.4,196,718.5,183.2,717z M243.2,593.6c-8.3,6.7-20.6,8.2-33,4.1c-11.5-3.8-20.2-11.7-22.3-19.9
		c-1.7-6.8-1.5-14.4-1.3-21.7c0.1-1.9,0.1-3.9,0.1-5.8c0.5-0.6,2.1-1.6,2.9-2.1l0.8-0.5c2.4-1.5,4.9-3,7.3-4.4
		c4.5-2.6,9.2-5.4,13.5-8.6c10.6-8,16.9-18.4,18.6-30.7l0.1-1c0.4-2.6,0.8-5.5-0.2-8c-1.9-4.6-0.5-8.5,1.7-13
		c3.7-7.8,7.4-15.6,11.1-23.5l6-12.8c2.6-5.5,4.3-6.2,9.9-3.9c11.7,4.8,19.1,13.7,21.9,26.7c1.7,7.9,2.7,16.2,3.8,24.1
		c0.5,3.6,0.9,7.1,1.4,10.7C286.1,540.6,272.2,570.1,243.2,593.6z M239,425.9c-4.3,10.6-9.2,21.2-14,31.5c-1.4,3-2.8,5.9-4.1,8.9
		c-1.3,2.8-2.1,3.1-2.3,3.2c-0.2,0-0.8,0.1-2.5-1.2c-10.2-8.1-22.6-9.6-33.4-10.4l-0.4,0c-2.8-0.2-5.4-0.4-5.9-0.9
		c-0.5-0.5-0.6-3.3-0.8-6.4c-0.2-4.5-0.6-9.1-0.9-13.5c-0.5-7.3-1.1-14.8-1.1-22.1c0.1-9.2,1.4-18.6,2.6-27.7l0.2-1.5
		c0.7-5.1,1.6-10.3,2.5-15.4c1.1-6,2.2-12.1,2.9-18.3c2.7-21.8,7.5-43.7,14.6-66.8c5.3-17.1,11.7-30.3,20.2-41.4
		c5.3-6.9,13.6-11,22.8-11.3c0.3,0,0.7,0,1,0c9.7,0,18.9,4.2,25.2,11.5c9.6,11.2,14.7,27.1,14.6,45.9c-1.1,14.6-4,36.7-12.1,59.4
		C259.6,373.8,250.3,397.6,239,425.9z M264.1,601.6c-1.1-2.2-0.4-3.3,2.2-6l0.3-0.3c9.6-10.2,21.3-24.3,27.4-42.2
		c6-17.7,8.6-35.2,7.6-52.2l0-4.8c0-3.6,0-7.3,0-10.9c0-3.1,0.4-3.8,0.5-4c0.2-0.2,1.1-0.5,4.5-0.2c21.4,2.3,33.6,14.8,36.4,37.2
		c3.3,27.2,0.2,49.9-9.6,69.3c-7.6,15.1-16.7,24.4-28.4,29.5C290.2,623.3,271.1,616.1,264.1,601.6z"/>
	<path class="h-graphic" d="M980,538.8c1.7-2.2,3.2-4.6,4.4-7.2c9.7-19.5,7.8-44.4-2.7-63.3c-17.1-30.7-55.1-33.7-86.6-31.7
		c-20.3,1.3-49.7,4.6-76.2,6c-24.4-47.5-48.2-52.7-95.5-63c-4.1-0.9-8.3-1.8-12.9-2.8c-40.9-9.1-83.1-1.1-120.3,6.1
		c-23,4.4-46.8,9-70,16.6c-26.6,8.8-45.3,20.7-56.6,36.2c-4,2.3-8.3,4.3-11.9,7.1c-7.2,5.6-14.8,11.2-20.6,18.2
		c-9.7,11.9-13,27.1-14.8,41.6c-3.7,29.5-2.4,58.6,16.4,84.2c6.5,8.8,13.6,15.5,24.1,19.1c6.7,2.3,13.5,5,19,9.1
		c11.3,8.5,18.1,25,28.6,35.1c43.1,41.7,129.7,78.7,188.7,54.8c13.9-5.7,22.9-16.7,35.8-23.7c5.3-2.9,11.3-4.4,17-6.4
		c12.8-4.6,25.1-11.9,34.7-21.5c2.2-2.2,17.3-28.6,13.7-28.5c2.8,0,5.5-0.1,8.3-0.1c1.6,0,3.2,0,4.8,0c0.5,0,0.9,0,1.4,0
		c0.9,0,1.9,0,2.8,0c39.3,0.7,78.3,9.9,117.8,11.5c13.8,0.6,28.1,0.7,41-4.2c37-14.1,38.8-68,11.1-91.9
		C981,539.7,980.5,539.2,980,538.8z M457.6,467.7c-6.9,32.1-5.3,64.3-0.5,96.4c0.7,4.4,2.3,8.7,3.4,13c0.9,3.7,1.8,7.4,2.6,11.1
		c-1,0.7-2,1.3-3,2c-4.4-4.2-9.8-7.7-13-12.6c-9.8-15-17.1-31.2-16.1-49.5c0.7-11.8,3.5-23.6,5.1-35.4c1.8-13.6,9.2-23.6,21-33.5
		C457.4,463.1,458.1,465.5,457.6,467.7z M860.5,611.1C860,610.9,859.5,610.8,860.5,611.1L860.5,611.1z M981.3,584
		c-0.5,14-7.8,27.7-20.8,32.3c-6.8,2.4-14.2,2.2-21.4,1.8c-38-2-75.7-7.6-113.6-10.5c-37.2-2.8-73.3-0.9-110.2,3.6
		c-0.7,0.1-1.4,0.3-2.1,0.6c-4.5,1.1-8.1,4.5-8.4,8.8c-0.4,5.7,3.4,9.9,10.2,9.2c0.9,0.1,1.7,0.2,2.7,0.1
		c19.7-2.4,39.5-3.8,59.3-4.5c-5,12.7-12.4,21.1-24,27.4c-13.8,7.5-28,10.5-43,11.1c-8.5,0.4-17.1-1.6-25.7-2.3
		c-5.4-0.5-10.8-0.7-16.2-0.8c-6.7-0.2-11.4,2.7-11.8,7.1c-0.3,4.4,3.9,7.7,10.8,8.7c8.2,1.2,16.5,2.4,24.7,3.7
		c1.3,0.2,2.6,1.1,5.9,2.5c-6.5,3.9-11.1,8.3-16.5,9.6c-12.5,3.1-25.3,5.7-38.2,1.5c-2-0.7-4.1-0.7-6.2-1.2
		c-16.5-4.2-33.4-7.2-49.3-13c-22.9-8.5-44.6-19.4-63.7-35.5c-15.8-13.3-29.2-28.1-37.6-46.7c-4.4-9.7-7.4-20.4-9.2-30.9
		c-4.7-26.9-8.7-54.2-4.7-81.5c1.9-12.8,8.5-38.5,8.2-38.8c9-11.4,24.1-20.5,45.8-27.7c21.9-7.2,45.1-11.7,67.5-16
		c35.3-6.8,75.4-14.5,112.3-6.2c4.5,1,8.9,2,13,2.8c42.8,9.3,59.4,13,77.6,44.4c-5.2,0-10.2-0.1-14.7-0.4
		c-10.5-0.7-21.1-0.8-31.3-2.3c-4.6,4.9-9.4,9.6-14.2,14.4c5.7,1.4,11.6,2.5,17.6,3.4c31.5,4.9,62.7,1,94-0.7
		c17.8-1,35.6-2,53.5-2.2c16.6-0.3,36.1-3.4,51,5.6c9.6,5.8,15.8,16.2,18.4,27.1c5.4,22.8-2,54.1-31.8,50.7
		c-40-4.5-79.5-11.9-120-11.2c-33.9,0.6-68,6.4-98.6,21c-3.9,1.9-8,4.1-10.1,7.9s-1.2,9.6,2.9,11.1c2.6,1,5.4,0,8-0.9
		c61.8-22.8,121.7-24.4,186.4-13.6c13.9,2.3,28.4,2.9,42.4,0.6c13-2.2,21.7-2,27.9,12.1C980.5,571.5,981.6,577.8,981.3,584z M586.2,573.3c-15.3-3.9-30.6-8.1-46-11.2c-1.3-0.2-4.9-0.4-5.8,2.3c-1,3.3,4.9,6.6,4.9,6.6l0,0
		c2.6,1.7,5.3,3.4,7.9,5.1c9.6,6.3,19.1,12.9,28.5,19.5c1.2,0.8,2.5,1.5,4,1.9C595.9,601.3,602.1,578.1,586.2,573.3z M607,513.3c-16-1.4-33.6-2.2-49.7-1.4c-10.9,0.6-22,1.5-32.7,3.7c-1.1,0.3-3.1,1.1-3.1,2.3
		c0.1,1.6,4.2,1.9,4.2,1.9l0,0c18.1,0.9,36.1,5.5,53.5,10.3l11.3,3.5c2.4,0.7,12.2,4.6,14.5,4.6
		C621.6,538.9,623.4,515.1,607,513.3z M595.4,455.2c-5.7,0.8-17.2,2.6-22.8,3.7c-16.7,3.5-34.2,7-50,13.8l0,0c0,0-4.9,2.2-4.5,3.8
		c0.3,1.3,4.3,0.9,5.5,0.7c0.1,0,0.2,0,0.3,0c0,0,0.1,0,0.1,0l0,0c16.4-2.2,33.3-0.9,49.7,0.2l11,1.1c2.6,0.2,12.1,1.9,14.6,1.4
		C615.3,476.8,611.8,453.3,595.4,455.2z"/>
</g>
</svg>


