<?xml version="1.0" encoding="utf-8"?>
<!-- Generator: Adobe Illustrator 28.0.0, SVG Export Plug-In . SVG Version: 6.00 Build 0)  -->
<svg version="1.1" id="Layer_1" xmlns="http://www.w3.org/2000/svg" xmlns:xlink="http://www.w3.org/1999/xlink" x="0px" y="0px"
	 viewBox="0 0 500 500" style="enable-background:new 0 0 500 500;" xml:space="preserve">

<style>
	.k-graphic{
  		fill: #ec2543;
		display: none;
  	}
    .h-graphic{
  		fill: #ec2543 ;
		display: none;
  	}
	.is-initial{
		display: block;
  	}
	.hide{
		display: none;
	}
</style>
<g>
	<path id="k01" class="k-graphic is-initial" d="M24.5,119.6v-1.4c0.3-0.3,0.6-0.5,1-0.8c0.6,0.4,1.1,0.8,2.1,1.4c0.4-0.6,0.7-1.1,0.9-1.5c2.3,0.2,4.1,0,5.5-1.2
		c1.1-1.2-1.5-2.2,0.1-3.5c0.8,1.2,2.6,1.9,2.6,3.7c0.4-0.4,0.8-0.9,1.1-1.3c1.5,0.5,2.8,0.9,4.1,1.3c2.1-0.5,0.5-2.5,2-3.2
		c-0.3-0.7-0.6-1.5-0.9-2.4h-2.5c0.1-0.8,0.2-1.4,0.3-2.4c-0.1-0.1-0.6-0.5-1.2-1c0.3-0.4,0.7-0.8,1.2-1.5c1.5,1.6,2.9,3.1,4.3,4.7
		h1.2c0.2-1.5,1.8-1.8,3.3-2.3c0.3,0.7,0.6,1.4,0.9,2c0.4,0.1,0.6,0.2,0.7,0.1c1.7-0.6,3.4-1.2,5.6-0.9c0.4-0.4,0.8-0.9,1.1-1.3
		c0.9,0.3,1.6,0.4,2.2,0.8c0.5,0.3,0.7,0.8,1.2,1.5h-8.1c-0.7,0.6-1.2,1-1.8,1.6c0.4,0.3,0.8,0.6,1.3,0.9v2.3
		c0.8,0.8,1.5,1.4,2.2,2.1c0,0,0.2,0,0.6-0.1c-0.5-1.6-1-3.2-1.5-4.7c1.5-1,1.5-1,4.1-1c0.1,0.3,0.3,0.6,0.4,1h2.3
		c0.5-0.8,0.8-1.7,2.5-1.7c0.9,0,1.7-1.1,2.7-1.8c0.4,0.4,0.8,0.7,1.2,1c-0.7,0.7-0.7,1.8-2.1,2.3c0.4,0.2,0.9,0.3,1.5,0.5
		c0,0.4,0.1,0.8,0.1,1.3c0.9,0.3,1.7,0.6,2.6,1c0,0.2,0.2,0.5,0.1,0.5c-1.1,0.7-0.1,2.6-2.4,2.7c-0.2-0.3-0.4-0.7-0.7-1.3
		c-0.2,0.4-0.4,0.7-0.6,1.1c-0.4,0.4,1.4,1.1,3.6,1.3v-1.4c0.8-0.5,1.5-1,2.1-1.5c0.6-0.4,1.1-0.9,2-1.6v3.2c-0.3,0-0.6,0.1-0.9,0.2
		c-0.4,0.9-0.7,1.8-1.1,2.9c0.6,0.4,1.3,0.9,2.2,1.5v2.7c0.1,0,0.3,0,0.4-0.1c0.4,1.1,0.9,2.2,1.6,3.8c0,0,0.5,0.5,1,0.9
		c-0.3,0.5-0.6,0.8-0.9,1.3c0.3,0.3,0.5,0.6,0.8,0.9c-0.6,1.6-1.3,3.1-2,5c0.3,0.2,0.8,0.7,1.3,1.2c-0.2,0.2-0.5,0.4-0.8,0.7
		c0.3,0.4,0.5,0.7,0.7,0.9c-0.2,0.9-0.5,1.7-0.5,2.5c0,0.9-0.4,1.8,0.5,2.7c0.3,0.2-0.2,1-0.3,1.5c-0.3,1.3-0.7,2.5,0.4,3.7
		c-0.7,1.6-0.7,1.6,0.1,4.8c-0.2,0.1-0.5,0.3-1,0.4c-0.4,0.1-0.8,0.2-1,0.3c-1,1.4,0.9,1.8,1.2,2.7c-0.8,1-1.5,1.9-2.3,2.9
		c0.6,0.5,1.1,1.1,1.6,1.5c-0.8,1.3-1.4,2.4-2.2,3.5c0.4,0.7,0.9,1.4,1.4,2.3c-0.3,1.8,0.5,3.8-0.6,5.8c-0.4,0.7-0.5,1.9,0.3,3
		c0.6,0.7,1.1,1.9,0.7,2.4c-0.8,1.1-0.1,2.2-0.5,3.3c-0.2,0.7-0.8,1.2-1.2,1.8c1.4,1.5-0.2,3.4,1.1,5c-0.4,0.6-0.9,1.4-1.5,2.2
		c1,0.7,1.8,1.2,2.2,1.5c-0.4,1.5-0.6,2.7-1,4.4c0.4,0.5,1.1,1.4,1.9,2.5v1.5c-0.4,0.3-0.8,0.6-1.2,1c-0.1,0.2-0.2,0.4-0.2,0.5
		c0.2,1.3-0.5,2.6,0.6,3.8c0.3,0.3,0.2,1.3-0.1,1.6c-0.9,0.9-0.5,1.8-0.5,2.7c0,0.8,0.5,1.5,0.6,2.3c0.2,0.8-0.3,1.6,0.6,2.4
		c0.3,0.3,0,1.1,0.1,1.7c0.1,1-0.4,2,0.6,2.9c0.4,0.4,0.4,1.4,0,1.9c-1.5,1.9-0.1,3.4,0.4,5.1c0.1,0.4,0.5,1.1,0.3,1.3
		c-1.4,1.2-0.4,2.4,0.1,3.5c0.5,1.1,0.7,2,0.1,3.3c-0.6,1.3-0.1,3-0.1,4.5c0.8,1.2,2.3,2.3,0.6,3.9c1.4,1.2,0.8,2.5-0.1,3.7
		c0.6,1,1,2.1,1.7,2.9c0.9,1.1,0.7,2-0.2,2.9c0.8,1.8,1.5,3.5,1.4,5.3c-0.1,1.9,1,3.8,0.7,5.7c-0.2,1.9-0.1,3.8-0.1,5.8
		c0.5,0.7,1.4,1.1,1.5,2.3c0.1,1.9,0.8,2.3,3,2.6c1.2-1.1,2.5-2.1,3.9-3.3v-1c0.9-0.8,1.8-1.5,2.7-2.2v-1.2c4.4-2.6,6-6.6,7.9-10.8
		c1.4-1,4-1.3,4.7-3.4c1.8-0.6,2.7-2.4,5-2.5c1.3-2.6,2.6-5.3,6-7.1c-0.2-0.9-0.5-1.8-0.8-3.1c1.6-2.6,3.4-5.5,6.2-7.7
		c0-1.3,0.5-2.2,2-2.8c0.5-0.2,0.7-1,1.4-2.1c2.4-2.2,5.4-4.8,8.5-7.6c-0.2-0.6-0.4-1.2-0.7-1.9c1.1-0.9,3.8-0.5,3.7-2.8
		c0,0-0.2-0.2-0.5-0.5c0.7-0.1,1.4-0.2,2.1-0.3c0.1-0.5,0.1-0.9,0.2-1.4c1.8-0.7,3.7-1.1,4.3-3c2.5-1.4,3.6-3.9,6.2-5.3
		c1.1-0.6,1.5-2.1,2.4-3.3c0.2,0,0.8-0.1,0.9-0.1c1-0.9,1.9-1.6,2.5-2.5c0.5-0.8,0.6-1.9,0.9-2.8c0.9-0.6,1.8-1.2,2.7-1.7
		c-0.1-2,1.5-3.2,2.7-4.6c0.4-0.5,0.7-1.1,1.2-1.9c0.1,0,0.7-0.1,1.5-0.2c0.5-1.4,2.6-2.2,2.1-4c1.1-1.9,4-1.4,5.5-3V180h2.4
		c0.4-0.8,0.7-1.6,1.1-2.4c0.5,0.3,0.9,0.4,1.3,0.7c0.7-0.3,1.4-0.6,2.3-1c-0.3-0.5-0.6-1-1-1.7c2.2-0.2,3.9-1.6,6.2-0.3
		c0.8,0.4,2.3,0.3,2.9-0.8c-0.3-0.2-0.6-0.5-1.1-0.9c-1,0.8-2.3,0.8-3.9,0.6c1.7-1.3,3-2.3,5.2-0.9c0.5-0.7,1.1-1.4,1.5-1.8h3.5
		c0.4-0.5,0.7-0.9,1.3-1.6c0.4,0.7,0.6,1.1,0.8,1.6c0.3,0,0.7,0,0.9-0.1c0.8-0.6,1.4-1.3,2.7-0.9c0.1,0.2,0.2,0.6,0.5,1.2
		c0.6-0.6,1-1.1,1.6-1.8h2.2v2.1c1.2,0,2.3,0.1,3.5,0.1c0.1,0.5,0.1,1,0.2,1.5c1.2,0.4,2.3,0.3,3.7-0.6c0.2,0.4,0.4,0.9,0.6,1.3
		c0.2,0.7,0.9,1.8-0.3,2.6c0.5,0.3,1,0.6,1.9,1.2c0.1-1.5,0.3-2.6,0.4-3.8c0.4,0,0.6,0,0.8,0c0.4,0.5,0.7,1.1,1.1,1.6
		c-0.2,0.5-0.5,1-0.7,1.5c-0.1,0.4,0,0.9,0,1.3c1.3,0.4,2.8-0.3,3.4,1.1c-0.1,0.1-0.3,0.2-0.7,0.6c0.7,0.2,1.3,0.3,1.4,0.3v2.3
		c1.8,0.8,3.1,2,4.5,3.4c-1.6,0.7-2.7,0.3-4-0.2c-2.6,1.6-1.7,3.9-1.9,6c1.1,1,1.1,1,1.4,2.1c-1.7,1-3.3,2-5,3
		c0.3,0.5,0.4,0.7,0.5,0.9c0.1,0.2,0.2,0.3,0.5,0.6c-0.4,0.9-2.8,1.7-0.7,3.2c-0.5,0.3-1.1,0.6-1.6,1c-0.9-0.9-0.1-2.6-2.6-2.4
		c0.2,0.6,0.4,1.1,0.7,1.8c-0.2,0.3-0.4,0.6-0.7,1c0.3,0.4,0.5,0.8,0.7,1c-0.8,1.4-1.5,2.7-2.3,4c-2.2,0.4-5.6,2.4-6.8,4
		c-0.7,0-1.5,0.1-2.4,0.1v2.4c-1,0.5-1.8,1-2.8,1.5h-3.2c-1.1,2.1-3.5,2.4-5.8,3v2.3c-0.4,0.4-0.8,0.6-1.1,0.9h-2.8
		c-0.1,0.2-0.2,0.5-0.3,0.7c-0.7,1.9-2.9,2.7-4.6,3.7c-1.5,1-3,1.8-3.8,3.2c-0.3,0.5-1.2,0.8-1.9,1.2v0.9c-0.2,0.2-0.3,0.4-0.4,0.5
		c-0.8,0.7-2.1,1.3-2.3,2.1c-0.3,1.2-1.8,0.6-2.1,1.5c-0.3,0.8-0.8,1.7-1.5,2.3c-1.7,1.8-4.1,3.1-6.7,4.2c-0.1,0.5-0.2,1-0.3,1.6
		c-1.2,1-3.7,1.2-3.3,3.4c-3.2,0.6-4.1,3.4-6.6,4.8h-3.3c-1.9,1.5-3.6,3.2-6.5,3.6c-0.5,0.6-1,1.3-1.7,2.2c-1.6-0.1-3.2-0.3-5.2-0.5
		c-0.1,0.1-0.4,0.4-0.8,1c0.1,0.2,0.3,0.5,0.5,0.8c-1.3,0.8-2.8,1.7-4.5,2.7c-0.1,0.3-0.2,0.8-0.3,1.5c-0.7,0.4-1.5,0.8-2.2,1.2
		c-1.1,1.3,0.4,2.3,0.4,3.6c-1.5,1.5-3.1,2.8-4.5,4.4c-0.7,0.8-1.8,1.7-0.8,3c1.3-0.4,2.6-0.9,3.9-1.2c1.4-0.4,1.7-2.2,3.5-1.7
		c1.9-1.3,3.2-2.9,5.4-3.9c0.9-0.4,1.9-1,2.1-2.1c0.1-0.4,1-0.7,1.5-0.9c1.9-0.7,3.6-1.5,5.3-3.4c0.5-0.2,1.7-0.7,2.6-1.1
		c2.2-1.7,4.2-3.1,6.1-4.6h2c1-1.4,3.7-1.6,4.4-3.6c2.3-0.6,3.4-2.5,5.5-3.5c1.6-0.8,3.4-1.1,4.9-1.9c0.8-0.4,1.4-0.8,1.5-1.5
		c1.3-0.6,2.5-1.2,4.2-2h1.8c0.4-0.5,0.7-1,1.1-1.6c1.1-0.5,2.5-0.9,3.8-1.5c3.1-1.6,7-1.8,9.9-3.6c0.3-0.2,0.9-0.1,1.3-0.1
		c3.7,0,7.4,0,11,0c0.6,0,1.2,0.3,2,0.5c0.5-0.2,1.2-0.4,1.7-0.5c2.2,0.9,4.2,1.8,6.6,2.8h2.2c2,1.8,5.1,2.7,6.3,5.1
		c0.4,0.8,0.9,1.5,2.1,1.9c1.2,0.4,2.2,1.5,2.4,2.8c0.1,0.3,0.1,0.7,0.4,1c0.2,0.3,0.6,0.5,1,0.8c-0.2,0.2-0.4,0.4-0.6,0.6
		c1.5,0.8,1.9,2.3,2,3.5c0.2,2.4,0.1,4.7,0,7.1c-0.1,1.1-0.8,2-0.7,3.2c0.1,1,0.1,2-0.6,2.9c-0.4,0.5-0.1,1.3-0.1,1.9
		c-1.2,1.4-2.9,2.5-2.8,4.5c0,0.7-0.9,1.4-1.4,2.2c0.2,0.2,0.4,0.4,0.5,0.6c0.1,0.2,0.2,0.5,0.4,0.8c-0.5,0.1-0.9,0.2-1.1,0.3
		c-1.1,2.1-2,4.2-3.4,6c-0.8,1-1,2.1-1.8,3.1c-0.7,1-1.6,1.9-1.4,3.2c0,0.2-0.1,0.4-0.2,0.5c-1.8,3.1-3.4,6.3-5.4,9.2
		c-1.2,1.7-1.8,3.4-2,5.3c0,0.3-0.2,0.7-0.4,1c-0.5,1.3-1.4,2.3-1.8,3.7c-0.4,1.2-1.7,2.2-2.6,3.3c-0.1,1.6,0.3,3.2-1.1,4.5
		c-0.3,0.3-0.3,0.9-0.2,1.3c0.1,1.2-0.3,2.3-0.7,3.5c-0.5,1.4-0.9,2.9-1.4,4.4c-0.1,0.2-0.4,0.4-0.7,0.7c-0.1,1.4,0,2.9-1,4.4
		c-0.8,1.1-0.3,2.7-0.4,4.2c-1.1,0.8-1.2,2-1.3,3.2c-0.1,1.3-0.5,2.7-0.6,4c-0.2,1.3,0.4,2.6-0.7,3.7c0.3,1.8-0.6,3.7,0.6,5.5
		c0.4,0.6,0.1,1.5,0.1,2.2c0,1.1-0.5,2.5,0.1,3.4c0.9,1.1,0.2,2.2,0.6,3.2c0.3,1,0.9,2,1.2,3c0.2,0.5,0.2,1.1,0.1,1.7
		c-0.1,1.3,0.1,2.6,1.4,3.5v2.9c0.4,0.3,0.8,0.6,0.9,0.7c0.3,0.4,0.5,0.4,0.5,0.5c0,0.6,0.1,1.2,0,1.7c-0.5,1.8-1.1,3.6-1.8,5.4
		c-0.2,0.6-0.8,1.2-1.3,1.8c-0.8-0.3-1.3-0.6-1.9-0.8c-0.5,0.7-1,1.2-1.4,1.8h-1.9c-1.3-0.7-2.4-1.3-3.7-1.9c-0.5,0.6-0.9,1-1.1,1.3
		c-2-0.3-2.4-1.7-3.5-2.5c-1.2-0.8-2.3-1.7-2.8-3c-0.4-1.2-1.7-2.1-1.4-3.5c0-0.1,0.1-0.2,0-0.3c-1.9-1.6-1.2-3.6-1.4-5.5
		c-0.1-1.2-0.1-2.4-0.8-3.4c-0.6-1-0.6-1.9-0.6-2.9c0-2.3,0.1-4.6,0-6.8c-0.1-1.4,0.4-2.9-0.6-4.4c-0.4-0.7-0.4-1.8,0-2.5
		c0.3-0.6,0.6-1.1,0.6-1.8c0-3.8,0-7.6,0-11.4c0-0.2-0.4-0.4-0.6-0.5c0.2-0.8,0.6-1.6,0.6-2.4c0.1-3.3,0-6.6,0-10
		c0-0.6,0.3-1.3-0.5-1.8c-0.2-0.2-0.3-0.8-0.1-1c1.2-1.2,0.6-2.5,0.6-3.8c0.1-3.5,0-7,0-10.5c0-3,1.2-5.9,0.7-8.9
		c-0.1-0.5-0.3-1-0.5-1.6c1-0.7,1.2-1.9,1.2-3.1c0-2.9,0-5.9,0-9.1c-0.9,0.2-1.7,0.6-2.5,0.6c-0.7,0-1.4-0.4-2.1-0.6
		c-1,0.5-2.1,0.8-2.8,1.4c-1.4,1.2-3.1,1.9-5,2.4c-1.4,0.3-1.9,1.8-3.4,2c-1.3,0.1-2.2,0.6-3.2,1.2c-1.6,0.9-3.6,1.2-5.1,2.3
		c-1.4,1-3,1.8-4.4,2.8c-0.3,0.2-0.4,0.6-0.7,1.2c-1.5-0.1-2.8,0.5-4.3,1.1c-1.9,0.8-3.5,2.1-5.7,2.3c-0.6,0.1-1.4,0.2-1.7,0.6
		c-1.4,1.6-4,1.9-5.7,3.3c-1.5,1.2-3.5,2.1-5.4,2.9c-2.6,1.1-5.1,2.2-7.6,3.4c-0.5,0.2-1.4,0-2,0c-0.6,0.5-1.3,1.1-2,1.6
		c-1.1,0.1-2.3,0-2.5,1.3c-0.2,1.4-1.3,1.7-2.8,2.3c-2.1,0.8-4.5,1.4-6.1,3c-1.6,1.5-2.9,3.1-4.2,4.5c0.3,1.1,0.6,2,0.9,3.1
		c0.8,0.6,1.9,1.4,3,2.1c1,0.7,1.5,2.2,1.5,3.4c-0.1,1.1-0.7,2.3-0.5,3.5c0.9,0.7,1.8,1.5,2.7,2.2v2.8c0.7,0.4,1.5,0.8,2.2,1.2
		c-0.3,0.8-0.6,1.4-0.9,2.1c1.6,1.2,2.8,2.4,3.6,4.1c-0.4,0.4-0.9,0.9-1.5,1.5c0.5,0.8,1,1.7,1.7,2.7c-0.7,1-1.5,2.1-2.3,3.2
		c0.2,0.2,0.3,0.4,0.5,0.6c-0.7,1.3-1.4,2.6-2.3,4.2c-1.1,0.5-2.6,1.1-4.3,1.8c-1.6,0-3.4-0.1-5.2,0c-1.6,0.1-3.2,0.4-4.7,0.7
		c-0.6-0.5-1-0.8-1.5-1.2h-1.8c-1.1-0.7-2.1-1.4-3.4-2.2c-0.2-0.8,0.1-2.2-2-2.5V355c-0.5-0.4-0.9-0.7-1.5-1.1c0-0.6-0.1-1.3-0.1-2
		h-1.8c-0.1-0.6-0.2-1.1-0.3-1.6c-0.4-0.3-0.8-0.7-1.2-1c-0.3-1.3,0-2.5-0.4-3.8c-0.4-1.3-1.9-2-1.8-3.4c0.1-1.3-1-2.2-2-3
		c-1-0.9-2.5-1.3-3-2.7c-0.4,0.3-0.6,0.5-0.7,0.6c-0.9-0.5-1.8-1-2.8-1.6c-3.3-0.3-6.9,0.6-9.8-1.8h-3.7c-0.3-0.8-0.6-1.6-1.1-2.9
		c0,0-0.4-0.3-0.9-0.7v-2.5c-0.9-0.6-1.8-1.1-2.9-1.8c-0.5-1.2,2.4-2.7-0.3-4c0.4-0.5,0.7-0.7,1.1-1.1c-0.2-0.3-0.5-0.7-0.9-1.1
		c0.8-1.7,2.4-3.2,2.3-5.1c1.8-1.7,1-3.7,1.2-5.7H53c2-2.2,0.8-4.5,1.2-6.6c-0.6-0.5-1-0.8-1.2-1c-0.4-2.3-0.7-4.4-1-6.5
		c-0.6-0.5-1.2-1-1.7-1.4c0.2-0.9,0.4-1.6,0.6-2.4c-0.8-0.5-1.5-1-1.9-1.3c-0.4-1.7-0.7-3.1-1-4.4c-0.8-0.4-1.4-0.7-2-1v-4.3
		c-0.7-0.4-1.5-1-2.1-1.4c0.3-1.7,0.6-3.1,0.9-4.5c-0.8-0.9-1.6-1.7-2.3-2.5c-1.1-1.3-2.2-2.5-0.7-4.1c0.2-0.2,0-0.6,0-1
		c-0.7-0.5-1.5-1-2.1-1.5c0.4-2.6-2.2-4.5-1.2-7c-0.8-0.7-1.6-1.3-2.4-1.9c0.4-0.5,0.6-0.9,0.8-1.2c-0.8-0.6-1.6-1.1-2-1.5v-2.4
		c-0.5-0.3-1-0.6-1.5-0.9c0.3-1.6-0.5-3.2,0.6-4.4c-2.8-4.5-4.2-9.2-4.9-14.1c-2.3-0.4-2.2-2.2-2.6-3.6c-0.2-0.7-0.1-1.5,0-2.3
		c0-0.8,0-1.6-0.7-2.3c-1.1-1.1-0.6-2.5-0.7-3.7c-0.4-0.3-0.8-0.7-1.3-1.1v-1.7c-0.5-0.4-0.9-0.8-1.4-1.1v-5.1
		c-0.6-0.4-1.5-0.6-1.8-1.1c-0.4-0.5-0.7-0.9-1.4-1.2c-0.5-0.2-0.6-1.1-1-1.7c1.2-2.1,1.2-4.1-0.8-6c-0.5-0.5-0.5-1.4-0.7-2.2
		c-0.2-0.2-0.6-0.5-1.2-1v-8.9c-0.9-0.3-1.8-0.5-2.9-0.8c0.5-0.9,1.1-1.9,1.7-2.9c-1-1.3-1.9-2.6-2.9-4v-2.6
		c-2.6-2.4-2.9-5.3-2.7-8.3c-0.8-0.1-1.4-0.2-2.1-0.3c0.6-1.5,2.1-0.8,3.6-1.2c-0.9-0.5-1.6-1-2.4-1.4c0.2-0.3,0.4-0.6,0.7-1
		c-0.6-0.3-1.3-0.7-2.1-1.1c0.3-0.4,0.5-0.9,1-1.7c-0.4-0.2-1-0.3-1.4-0.5c0,0.2-0.1,0.7-0.4,1.9c-0.3-0.9-0.5-1.3-0.6-1.7
		c-0.2,0.1-0.3,0.3-0.5,0.4v-1.7c0.4-0.4,0.9-0.8,1.3-1.2v-2.6c-0.9-1.3-1.7-2.5-2.7-3.9c-0.1,0-0.5-0.3-1.5-0.9
		c1.5-0.1,2.3-0.2,3.4-0.3c0-0.4,0.2-0.9,0-1.3c-0.5-1-1.1-1.9-1.9-3.1c-0.2-0.1-0.9-0.4-1.6-0.8c0.7-0.4,1.3-0.7,1.9-1
		c-0.2-0.9-0.4-1.7-0.7-2.7c-0.3-0.2-0.7-0.6-0.9-0.8c0.2-0.9,0.3-1.8,0.5-2.7c-1.1,0.2-1.9,1-3,0.1c0.4-1.2,1.9-1.7,2.9-2.9
		c-0.2-0.6-0.4-1.5-0.7-2.6c0.5-0.4,1.2-0.9,2-1.6c0.8,1,1.8,1.9,4,1.8c0.2-0.1,0.6-0.5,1.2-0.9c-1.4-0.9-2.5-1.6-3.6-2.3
		c0.2-0.1,0.3-0.3,0.5-0.4c-0.1-0.5-0.2-1-0.3-1.7c-0.5,0.2-1.1,0.3-1.1,0.4c-0.1,0.6-0.1,1.3-0.2,1.9c-1.6-0.4-1.4-1.4-1.3-2.2
		c0.2-0.9,0.6-1.9,1-2.7c0.4,0.2,0.9,0.4,1.4,0.7c0.2-0.5,0.3-0.8,0.5-1.2H9c0.8-1,0.3-1.7-0.6-2.2c-1.2-0.3-2.8,0.4-3.7-0.8
		c0.3-1.5,2.3-0.6,3-1.4c0.6,0.4,1.2,0.8,2.1,1.4c0.2-1.3,0.3-2.2,0.4-3.2c1.5,0.2,2.9,0.4,4.4,0.7c0.6,0.4,1.4,0.8,2.4,1.3
		c-0.6,1.2-1.2,2.4-4,4c1.1-1.2,1.1-1.2,0.9-2.6h-3c0.2,0.1,0.3,0.3,0.5,0.5c-0.6,0.1-1.2,0.2-2.1,0.4c0.8,0.7,1.2,1,1.6,1.3
		c0.3,0.4,0.6,0.8,2,0.4c0.9,0.5,1.8,1.5,2.8,2.5c1.8-1.6,2.3-3.6,2.6-5.6c1.7-0.2,3.3-0.3,5.2-0.5c0,0.1,0.2,0.5,0.4,0.9h1v-1.4
		c0.6-0.2,1-0.4,1.6-0.6C26.4,120.5,25.5,120,24.5,119.6 M6.7,128.3c0.3,0.8,0.6,1.5,0.9,2.2c0.9-0.4,1.6-0.7,2.4-1
		c-0.4-1.7-0.4-1.7-2.5-1.9C7.2,127.8,6.9,128.1,6.7,128.3 M5,139.1c0.6-1.2,1.1-2.3,1.6-3.5H5.4c-0.5,0.9-1,1.8-1.5,2.6
		C4.3,138.5,4.6,138.7,5,139.1 M210.8,179.9c0.4,1.1,0.8,2,1.2,3.2c0.8-0.6,1.3-1.1,1.9-1.6C212.8,180.9,211.9,180.5,210.8,179.9
		 M59.1,114c-0.7-0.3-1.3-0.5-2.7-1c0.7,1.1,1.1,1.6,1.4,2.2C58.3,114.8,58.6,114.5,59.1,114 M52.5,119.6c0.4-0.5,1.7-0.8,0.6-1.8
		c-0.5,0.3-1.1,0.6-1.6,1C51.8,119.1,52.1,119.3,52.5,119.6 M18.1,132.1v-1.2c-0.5,0.1-0.8,0.1-1.3,0.2c0.1,0.4,0.2,0.7,0.3,1H18.1z
		 M10.5,171.9h-0.3v1.1h0.3V171.9z M213.5,183.9h-0.3v1.1h0.3V183.9z"/>
	<path id="h01" class="h-graphic is-initial" d="M402.6,106.2c-0.3-0.6-0.3-1.2-0.3-1.7c0.7-0.3,1.4-0.6,2.1-0.9c0.5,0.4,1,0.8,1.5,1.2c1.6-0.3,3.1-0.6,4.4-0.8
		c1,0.9,1.8,1.7,2.5,2.3c4.2-0.7,6.9,2,10.5,2c0.9,1-0.7,2.7,1.4,3.3h2.6c0.7,0.6,1.9,1.3,2,1.9c0.1,2.2,2,3.3,3.4,4.6v4
		c0.8,0.9,1.5,1.8,2.6,3.1c-0.2,1.2-0.6,2.9-0.9,4.9c0.4,0.4,1,0.9,1.7,1.6c-0.1,0.5-0.3,1-0.4,1.5c-0.1,0.6-0.5,1.3-0.3,1.8
		c1.2,2.4,1.6,4.8,1.5,7.3c-0.1,2.1-0.5,4.4,0.1,6.4c0.6,1.8,0.6,3.5,0.6,5.2c0,0.5-0.4,1-0.6,1.4c0.5,0.9,1.5,1.9,1.4,2.8
		c-0.2,2.1,1,3.9,1,5.8c0,0.9,0,1.8,0.6,2.9c0.6,1,0.6,2.6-0.3,3.8c-0.4,0.5-0.6,1.4-0.3,1.9c1.3,1.9,0.7,3.9,0.7,5.9
		c0,3.8,1.6,7.4,0.7,11c0.7,1.1,1.2,1.9,1.9,2.8c-2.5,2.1,0.8,4.3-0.1,6.4c1.5,2.8,0.6,5.7,0.8,8.5c0.1,0.7-0.1,1.4,0.5,2.2
		c0.8,0.9,0.4,2.1-0.5,3c0.3,0.7,0.6,1.4,0.8,2.1c0.2,0.7,0.4,1.4,0.7,2.3c-0.2,0.4-0.9,1.1-0.6,1.5c1.1,2.1,0.6,4.4,0.8,6.5
		c0,0.4,0.5,0.7,0.7,0.9c-0.3,1.4-0.6,2.7-0.9,4.1c1.3,0.8,2.6,1.6,3.9,2.4h9.8c2.6,0,5.2-0.1,7.8,0c2.4,0.1,4.7,0.4,7.1,0.6
		c1.9,0.2,3.7-0.1,5.3-1.6c1.7,1.8,4.4,0.4,6.6,1.4c2,0.9,4.6,0.7,7.5,1c0.2,0.2,0.7,0.7,1,1.1h2.1c0.2,0.4,0.3,0.8,0.5,1.2
		c0.7,0.1,1.5,0.2,2.5,0.3c-0.4,0.7-0.7,1.3-1.2,2.1c1.8,1,1.8,2.8,2.7,4.2c-1,1.9-2,3.6-3.1,5.7c-0.5,0.3-2,0.5-2,1.9
		c-1.5,0.4-2.9,0.7-4.7,1.1c-0.8,0.7-1.9,1.6-2.9,2.4c-1.5,0.1-3.3-0.2-4.4,0.4c-1.3,0.8-2.8,0-4.1,1c-0.8,0.6-2.8,0.2-4.3,0.4
		c-1.4,0.2-2.7,0.6-3.8,0.9c-1.7-0.2-3.2-0.4-4.7-0.4c-1,0-2.2,0.7-2.8,0.4c-1.1-0.6-2.1-0.5-3.1-0.4c-1.2,0.1-2-0.4-3-0.7
		c-1.9-0.5-3.7,0.4-5.4,0.8c-4.2,0.9-5.3,2.4-5.3,6.1c0,0.9,0,1.8,0,3c0.5,0.2,1.3,0.5,1.6,0.7c0,2.4,0.2,4.4,0,6.3
		c-0.4,3,1.1,5.4,2.5,8.1c-1.6,1.6-0.8,3.1,0.8,4.5c-0.2,0.2-0.5,0.5-0.9,0.8c0.9,0.8,0.7,1.8,0.6,2.9c-0.1,1,0.4,2.1,0.6,3.2
		c0.4,0.4,0.9,0.8,1.4,1.2c0,0.9-0.1,1.8,0,2.7c0.1,0.9,0.6,1.8,0.8,2.8c0.1,0.9,0,1.8,0,2.7c0,0.8,0.8,1.5,0.1,2.5
		c-0.4,0.5,0.2,1.6,0.5,2.9c-0.3,0.5-0.9,1.4-1.6,2.5c0.5,0.4,1,0.9,1.7,1.5v2.7c0.9,0.5,1.7,0.8,2.4,1.2c0.3,3,0.8,5.9,1.7,8.7
		c0.4,1.1,0.4,2.4-1.3,3.7c0.9,0.3,1.6,0.6,2.1,0.8v5.1c1.1,1.5,2.2,2.9,3.4,4.4c-0.3,0.9-0.7,2-1,2.9c1.1,0.8,2,1.5,2.9,2.2
		c-0.4,1.3-0.6,2.4-1,3.7c0.3,0.3,0.9,0.9,1.5,1.4c-0.3,0.3-0.5,0.5-0.7,0.7c0.1,0.3,0,0.5,0.1,0.7c1.3,1.8,2.1,3.8,3.3,5.7
		c1.8,2.8,2.3,6.1,4.4,8.7c1,1.3-0.2,2.8,1.2,4.1c0.8,0.7,0.7,2.2,0.9,3.4c0.1,0.5,2.6,4.6,3.2,5.2v2.6c2.8,2.5,3.6,5.2,3.4,8.3
		c0.5,0.5,1.1,1,1.6,1.4c0.3,2-0.3,4,0.7,5.9c0.4,0.7-0.6,2-0.9,3c-0.9,0.3-1.8,0.7-2.8,1c-0.3,0.8-0.4,1.8-0.9,2.7
		c-0.5,0.9-1.3,1.6-2,2.5c-1,0.1-2.2,0-3,0.5c-1,0.6-1.8,1.1-3.2,1.1c-0.9,0-1.9,0.6-2.7,0.8c-0.1,0.5-0.2,0.8-0.4,1.4
		c-1.6-0.8-3-1.5-4.8-2.4h-3.7c-1.9-1.5-3.4-2.8-4.9-4c0,0,0.2-0.2,0.6-0.5c-1-0.6-1.9-1.2-2.6-1.7c0-0.7,0.2-1.1,0-1.4
		c-1.7-2.5-2.3-5.3-3.6-8c-0.1-0.2-0.5-0.4-0.5-0.5c0.8-3.2-1.7-5.9-1.7-8.9c0-0.5-0.5-1-0.8-1.5c0.3-0.4,0.6-0.8,1-1.4
		c-0.3-0.3-0.6-0.6-0.9-1c2.1-3.3-0.4-7.1,1.6-10.6c0.5-0.9,0.4-2.1,0.6-3.7c0-0.2-0.5-1-0.5-1.8c-0.1-1.8,0-3.6-0.1-5.4
		c-0.1-1.5,0-3-0.7-4.5c-0.6-1.3-0.2-3-1.5-4.3c-0.4-0.3-0.2-1-0.3-1.6c-0.1-1.2,0.5-2.5-0.8-3.5c0.9-3.6-2-6.8-1.7-10.3
		c0-0.4-0.4-0.8-0.6-1.2c0.2-0.2,0.5-0.6,0.9-1.1c-0.8-0.4-1.7-0.7-2.2-1.2c-0.6-0.5-0.9-1.3-1.3-1.9c1.9-2.8,0.5-5.7-0.2-8.8
		c-0.6-0.4-1.4-1-2.2-1.6v-4.7c-2.7-3-4.9-6-4.2-9.8c-0.6-0.5-1.1-0.9-1.7-1.4c0.2-1.8-0.1-3.6-1.5-4.7c0.4-1.3,0.6-2.3,0.9-3.3
		c-0.7-0.5-1.1-0.9-1.7-1.4c-0.6-3.3-1.2-6.8-1.9-10.6c-1.1-0.9-2.5-2.1-4.1-3.4c0.2-0.4,0.5-0.9,0.5-1.4c0.1-0.8,0.6-2,0.1-2.5
		c-1.8-1.9-1.2-4-1.4-6.1c-1-0.6-2.1-1.2-3.2-1.8v-2.3c-1.6-1-3.2-2-4.4-2.8c-2.7,0.2-5,0.3-7.2,0.5c-1.8,0.2-3.6,0.5-5.4,0.7
		c-1.7,0.2-3.5-0.5-5,0.6c-0.3,0.2-1.1,0-1.6,0c-3,0.2-6.1,0.4-9.1,0.7c-1,0.1-2.2,0.2-2.9,0.7c-1.6,1.1-3.6,0.1-5,0.7
		c-1.4,0.6-3,1.2-4.3,1.2c-3-0.1-5.5,1.1-8.3,1.7c-1.9,0.4-3.6,0.9-5.6,1.2c-2.6,0.4-5,1.5-7.4,2.4c-2.1,0.1-3.9,0.7-5.9,1.3
		c-1.9,0.6-4.2,0.9-6.2,1.6c-1.9,0.6-3.7,1.3-5.5,2c-0.6,3,1.7,5.3,1.7,8.1c0,2.6,1.5,5.1,1.7,7.9c0.2,2.6,1.9,5.1,1.4,8
		c2.7,1.7,1.9,4.5,3,6.7c1.1,2.2,1.6,4.7,2.4,7.3c0.2,0.2,0.7,0.6,1.2,1c0.1,3.6,1.6,6.9,3.2,10.1c1.2,2.5,2.8,7.2,2.7,9.1
		c-1.9,3.4-4.5,5.8-7.8,7.5c-2.3,0.4-4.5,0.9-7.3,1.4c-0.6-0.2-1.8-0.5-2.9-0.8c-0.1-0.4-0.2-0.7-0.2-1c-0.8-0.1-1.4-0.1-2.3-0.2
		c-0.2-2.3-3.4-2.4-4.5-4.4c-0.7-1.3-1.7-2.5-2.3-4c-0.6-1.7-1.3-3.5-1.6-5.7c-0.6-0.4-1.5-1-2.4-1.6c0.7-3.3-0.9-6.2-1.7-9.1
		c-0.6-2.4-2-4.5-2.7-6.9c-0.3-1.1,0.9-1.9,0.2-3.1c-0.7-0.8-1.5-1.8-2.1-2.5c-0.4-2.7-0.8-5.2-1.2-7.9c-0.3-0.3-0.8-0.7-1.5-1.2
		c0.1-1.6,0.1-3.4-1.3-4.5c-0.5-1.9-0.9-3.6-1.2-5.1c-3.1-1-5.5,0.8-7.9,1.5c-2.1,0.6-4.5,1-6.1,2.7c-0.9,0.9-2.7,1.4-4.4,1
		c-1.7,1.6-3.6,2.8-6.1,3.5c-2.5,0.7-4.5,2-6.5,3.5c-4.1,3-8.5,5.7-12.4,8.9c-1.3,1-3.2,1.6-4.8,2.4c-0.3-0.2-0.6-0.4-1.1-0.7
		c-1,0.8-1.9,1.5-2.2,1.7c-2.1,0.7-3.4,1.2-5.4,1.9c-2.3,0.3-5.6-0.6-9,0.6c-1.4-0.6-3.1-1.3-4.9-2c-0.4,0.2-0.8,0.5-1.3,0.8
		c-1.8-0.8-3.7-1.7-5.7-2.5c0,0,0.3-0.3,0.6-0.7c-0.9-2.1-2.3-4-5-5.2V295c-0.5-0.1-0.9-0.1-1.3-0.2c-0.3-1.8-0.3-1.8,1.9-2.8v-2.7
		c1.2-1.3,2.1-2.7,3.4-3.5c2.3-1.5,4.2-3.2,6.1-5c2.3-2.2,5.4-3.9,8.3-5.5c1.1-0.6,2.7-0.7,4.5-1.1c1.2-1.1,2.9-2.5,5.3-3
		c0.4-0.1,1-0.1,1.1-0.2c0.6-2.5,3.4-1.9,5.3-2.5c2.7-1,5.3-2,8-2.9c2-0.7,3.9-1.5,5.9-2.2c1.3-0.5,2.8-0.5,3.7-1.7
		c0.4-0.4,1.4-0.7,2.1-0.7c1.6,0.1,2.7-0.6,4.1-1c1.1-0.3,2.3-0.4,3.8-0.6c2.6-2.3,7.9-1.6,10.2-5.2c0.1-1.9-0.4-3.8-2.1-5.5
		c-0.7-0.7-1-1.7-1.2-2.6c-0.4-2.4-0.7-4.8-1-7.3c-0.9-1.2-1.9-2.6-3.1-4.2c1.1-2.3-1.2-4.4-1.9-6.8c-0.6-2.3-1.9-4.6-4-6.5
		c0.1-1.5,0-3.1-1.4-4.5c-1.3-1.2-1.2-2.8-1-4c-1.7-2.6-3.1-4.8-4.7-7.2c0,0,0.5-0.3,0.4-0.5c-0.5-1.6-0.5-3.5-1.6-4.8
		c-1.8-2-2.5-4-2.3-6.1c-1.1-1.5-2.8-2.7-2.9-4c-0.2-1.9-2-3-2.1-4.8c-0.1-0.5-1-1-1.6-1.6v-3.4c-0.5-0.3-1-0.7-1.6-1.1v-3
		c-0.8-0.4-1.6-0.8-2.4-1.3c-0.3-4.8-1.9-8.1-5-9.4v-2.8c-2-1-2.6-2.8-3.4-4.5c1.9-2.3-0.3-3.9-1.6-6.2v-1.8
		c-0.8-0.5-1.7-1.2-2.3-1.6c-0.5-2.1-0.8-3.9-1.3-6c-3.9-5.3-4.4-6.9-2.9-9.6c-2.1-2.5-3-5.3-2.5-8.4c-0.7-0.6-1.3-1.2-2.4-2.1
		c1.6-0.2,2.5-0.3,3.7-0.5c0.1-0.2,0.3-0.6,0.4-1c0.5-0.2,0.9-0.3,1.4-0.5v-2.6c-1.1,0.3-2,0.6-3.2,1c0.4-0.7,0.7-1.1,0.8-1.6
		c0.1-0.5,0-1.1,0-1.9c0.7,0,1.3-0.1,2-0.1c0.5-0.7,1.1-1.4,1.6-2c1.6,0.7,3,1.3,5.2,2.2c-1.5-1.9-0.9-3.8-3.6-4.7
		c-1.3-0.4-1.9-2.1-3.1-3.6c2.9-0.3,3.2,1.6,4.4,2.7c0.5-0.3,1-0.5,1.3-0.7c1.6,0.2,2.9,0.4,4.4,0.7c0.1-0.6,0.1-0.9,0.2-1.3
		c-0.8-0.1-1.6-0.2-2.4-0.3c0.1-0.2,0.2-0.4,0.3-0.5c0.4-0.3,0.9-0.7,1.3-0.7c1.7,0,2.4-0.7,2.5-1.8c1,0.2,2,0.4,2.8,0.5
		c1-1.6-1.1-1.7-1.4-2.9c0.9-0.8,1.8-1.6,2.8-2.5h2c0.1,0.4,0.2,0.7,0.3,1.1h4.9c0.5-0.4,1.3-1.2,2-1.8c2.1,0.4,4.1,0.9,6.1,1.2
		c1,0.1,2.1,0.2,3-0.5c0.4-0.3,1.6,0.2,2.8,0.3c1.1-0.8,2.5-1.8,4.3-3.1h1.9c0.4,0.6,0.8,1.2,1.3,1.9c-0.3,0.5-0.6,1.1-0.9,1.6
		c2,0.9,3.9,1.8,5.9,2.7c-0.1,0.7-0.1,1.4-0.2,2.5c-1.1-0.9-1.8-1.5-3-2.4c-0.1,1-0.1,1.5-0.2,2.2c1.3,0.4,2.6,0.8,4,1.2v3
		c0.6,0.2,1.1,0.3,1.8,0.5c0,1.5-0.4,3.2,0.1,4.6c0.5,1.2-0.8,2.6,0.9,3.5c-0.4,0.4-0.7,0.6-1,0.9c0.8,0.6,1.6,1.2,2.4,1.8
		c-1.2,1.6-0.4,3.3-0.9,5c0.6,0.3,1.1,0.6,1.5,0.7c0.7,1.7,0.4,2.9-0.6,3.9c0.4,0.4,0.7,0.6,1,0.9c0,5.2,0,5.2,1.6,7.4
		c-1.5,1.3-0.7,2.6,0.1,3.9c-0.3,0.3-0.6,0.7-0.9,1c2.4,5.9,4.1,11.9,3.2,17.8c0.8,1.1,1.3,1.9,1.8,2.7c-1.6,1.9-0.9,3.6,0.8,5.3
		c0,1.2,0,2.4,0,3.6c0,0.9,0.4,1.7,0.7,2.5c0.5,1.5,1.5,3.1,1,4.8c-0.3,1.1,0.6,2.1,0.8,3.1c0.6,3,1.6,5.9,1.7,8.9
		c0,0.2-0.1,0.5,0,0.7c2.1,2.6,1.6,5.4,1.6,8.3c0,0.8,0.5,1.4,0.8,2.1c0.8,2.2,1.1,4.6,1.8,6.9c0.6,2.2,1.1,4.3,0.7,6.4
		c0.7,0.6,1.2,1.1,1.8,1.6c-0.2,2.7,0.2,5.4,1.4,8c0.5,1.2,0.2,2.7,0.3,4.3c0.4,0.2,1.2,0.5,1.3,0.6c0.5,3.4,0.9,6.1,1.3,8.9
		c2.2,1.6,1.5,4.9,4.8,6.5c1.1-0.4,2.4-0.9,3.8-1.4c5.4-0.5,10.4-2.4,16.1-4.2c3.7,0.9,7-1.8,11-2.2c0.6-0.1,1.2-0.6,1.8-0.6
		c3.7,0.3,6.9-0.9,10.2-1.8c2.1-0.5,4.2-1.1,6.5-1c2.6,0.1,5.2,0,7.8,0c1.2-1.1,2.7-1.2,4.3-1.4c2.1-0.3,4.3-0.4,6.4-1.2
		c1-0.4,2.4,0,3.6-0.1c1.5-0.1,3.1-0.3,4.5-0.5c0.5-0.8,0.9-1.5,1.4-2.2c-1.5-1.2-0.7-2.9-0.9-4.5c-0.4-0.3-0.9-0.7-1.4-1
		c-0.1-0.3-0.3-0.5-0.2-0.7c0.6-3.6-1.1-7-0.9-10.6c0-1-0.8-2-1.2-3c-0.6-1.5-1.5-3-1.2-4.7c0.2-1-0.5-1.9-0.7-2.8
		c-0.8-2.6-1.8-5.2-1.8-7.9c0-1-0.6-2.1-0.8-3.1c-0.1-1,0.2-2.1-0.1-3c-0.2-0.9-0.9-1.7-1.6-2.8v-3.7c-2.2-1.7-1.6-3.8-1.7-6.1
		c-0.5-0.5-1.1-1-1.7-1.6c0.1-0.5,0-1.1,0.3-1.3c1-0.8,0.9-2,0.5-2.5c-2.4-2.8-1.3-6.3-3.2-9.1c-0.1-0.2,0-0.4,0-0.7
		c-0.2-1.9-0.4-3.9-0.6-5.7c-1.1-0.6-1.9-1.1-2.7-1.5c0.4-1.2,0.7-2.4,1-3.4c-0.7-0.6-1.2-1-1.8-1.5c0.7-3.3-2.7-6.1-2.5-9.5
		c-0.6-0.2-1.1-0.4-1.8-0.7c1.6-1.8,0.8-3.9,1-5.6c-0.7-1.3-1.3-2.4-2-3.7c1.1-0.7,2-1.2,3.4-2.1c-1.3-0.3-2.1-0.5-2.9-0.6
		c-1.4-3.1,3-2,3.9-3.6c-0.3-0.8-0.6-1.7-1-2.6c0.7-0.3,1.3-0.5,2.1-0.8c-0.7-0.7-1.3-1.4-2-2.3c1-1.2,2.1-2.4,4.1-2.9v-3
		c3.7-0.4,6-2.2,7.8-4.7C399.1,107.3,400.7,106.7,402.6,106.2c0.1-0.1-0.2,0-0.4,0c0.1,0.4,0.2,0.9,0.3,1.3c0.2,0,0.4,0,0.5-0.1
		C403,107,403,106.5,402.6,106.2 M292.1,105.4h1.4v-1.9h-1.4V105.4z M287.2,103.4v1.4c0.6-0.1,1-0.2,1.5-0.3
		c-0.1-0.5-0.2-0.8-0.3-1.2H287.2z"/>

	 <path id="h02" class="k-graphic" d="M116.2,139.4c6.8,0,12.9-0.7,17.3-1c-30.9,62.9-34,133.6-36.7,186.9h0.7c8.2-86.7,23.8-195.1,90.1-195.1
		c30.6,0,47.2,22.1,47.2,45.9c0,5.8-1,11.9-3.1,17.7c-49.6,20.7-74.4,61.2-105.7,127.1h1c11.2-22.4,27.2-47.6,43.5-67.6
		c0,28.2,9.5,49.6,26.5,49.6c11.2,0,21.1-10.5,28.2-21.4c6.1,0,9.2,8.5,9.2,17.3c0,41.1-33.3,83.6-79.2,83.6
		c-23.1,0-35.7-18-41.5-34.7c-9.2,18.4-27.2,34.7-50.3,34.7c-26.9,0-54-22.4-54-91.1c0-30.3,7.5-70.4,15.3-94.2
		c10.9,4.1,22.8,5.8,34,5.8c5.4,0,9.2-0.3,9.2-0.3v-0.7C25.5,196.8,0,174,0,138c0-8.5,1.4-18.4,4.8-29.2
		C36.7,130.5,82.9,139.4,116.2,139.4"/>
	<path id="k02" class="h-graphic" d="M500,144.1c-22.4,39.1-36.7,104.7-36.7,154.7v8.8c9.9-10.9,20.1-27.9,26.5-44.2c5.8,1,8.5,6.1,8.5,13.3
		c0,36.4-19.7,105.7-68.3,105.7c-29.6,0-51.3-28.6-56.1-62.5l-25.5-3.7c-16.3,43.2-44.9,75.1-91.4,75.1c-33.3,0-57.8-23.1-57.8-62.2
		c0-46.9,30.9-77.2,79.2-81.6c0-15.3-0.7-35-2.4-45.5c4.4,1,8.8,1.4,13.3,1.4c10.2,0,20.4-0.7,29.6-4.8l-0.3-0.7
		c-4.4,0.3-8.8,0.7-12.9,0.7c-46.2,0-69.7-28.6-69.7-69.3c0-2.7,0-5.4,0.3-8.2c20.1,7.1,41.1,9.9,62.2,9.9
		c27.9,0,50.3-5.1,73.4-11.6c1.7,11.2,2.7,23.8,2.7,38.1c0,21.4-3.4,54-7.8,79.9h3.7c4.8-37.4,28.9-107.1,82.3-107.1
		C480.3,130.2,500,144.1,500,144.1 M264.1,316.5c-20.7-0.3-36.4,15.6-36.4,21.1c0,2,1.7,4.1,4.1,4.1
		C240.3,341.6,258.7,327.3,264.1,316.5"/>

	<path id="k03" class="k-graphic" d="M0,279.1h24.7c10.5,0,14.6-6.1,14.6-25.5c0-19.4-3.6-26.3-14.6-26.3H0V108.5h107.1v118H94.6
		c-5.3,0-9.3,2-11.3,6.5c-1.6,2.8-2.8,6.9-3.2,12.1h41.2c18.6,0,19-2.8,25.9-18.6h-25.1v-118h106.7v118.8h-17
		c-23.8,0-49.7,18.6-49.7,26.3c0,7.3,25.5,25.5,50.1,25.5h16.2v112.4H122.1V279.9h25.1c-3.2-14.6-7.7-16.6-25.9-16.6H80.4
		c0.4,4.9,1.6,8.5,2.8,10.9c2,3.6,6.1,5.7,11.3,5.7h12.5v111.6H0V279.1z"/>
	<path id="h03" class="h-graphic" d="M378.7,279.1h22.6c10.5,0,14.1-3.2,14.1-13.3v-2.4H325v2.4c0.8,10.1,3.6,13.3,14.6,13.3h22.6v112.4
		H244.9V279.1h24.7c10.5,0,14.6-6.1,14.6-25.5c0-19.4-3.6-26.3-14.6-26.3h-24.7V108.5h117.2v118.8h-22.6c-10.9,0-13.7,3.6-14.6,14.1
		v3.6h90.5v-3.6c0-10.5-3.6-14.1-14.1-14.1h-22.6V108.5H500v118.8h-27.5c-10.9,0-14.6,6.9-14.6,26.3c0,19.4,4,25.5,14.6,25.5H500
		v112.4H378.7V279.1z"/>

	<path id="k04" class="k-graphic" d="M227.5,286.7v23.7h-49v-24.4h-26.4v-48.9h22.7c1.6-1.6,2.7-2.7,4.3-4.3v-23h24.6v-24.6h23.5v-27.1h-48.5v-24
		h-54.4v22.9c1.3,1.3,2.8,2.8,4.7,4.8H151v48.4h-27.4v24.6H99v23.3H74.5V133.9c-24.8,0-49.2,0-73.5,0c-0.4,0-0.9,0.2-1.3,0.5
		c-0.4,0.3-0.7,0.7-0.5,0.5v26.6h23.3v201.4h3.7v-0.3h49v-48.4h22.4c2-2,3.4-3.4,5.4-5.4v-22.1h20.5v22.2c2,2,3.4,3.4,5.4,5.4h22.4
		v24.6h24.6v23.3h52.1v-47.9h22.4c2-2,3.4-3.4,4.3-4.3v-23.1H227.5z"/>
	<path id="h04" class="h-graphic" d="M499.9,137.2v27h-24v73.3h23.6v27.6h-23.7V338h23.9c0.4,9.3,0,18.2,0.2,27.5H396.4c0.6-8.6-3.2-17.9,3.2-26.8H423
		v-47.9c0.2,0.2-0.1-0.2-0.5-0.5c-0.4-0.3-0.9-0.5-1.3-0.5c-24.3,0-48.7,0-73.5,0v48.4h22.9c7.1,8.8,2.7,18.2,4.4,27.3H271.2V339
		h23.4v-73.3h-23v-27.6h23.2v-73.3h-23.8v-27.5h103.8v22.9c-2.1,2.1-3.1,3.1-4.7,4.7h-22.2v47.9h75.4v-47.9h-22
		c-2.1-2-3.6-3.4-5-4.6v-23H499.9z M347.5,261.8h75.3v-20.4h-75.3V261.8z"/>
</g>
</svg>