<?xml version="1.0" encoding="utf-8"?>
<!-- Generator: Adobe Illustrator 28.0.0, SVG Export Plug-In . SVG Version: 6.00 Build 0)  -->
<svg version="1.1" id="Layer_1" xmlns="http://www.w3.org/2000/svg" xmlns:xlink="http://www.w3.org/1999/xlink" x="0px" y="0px"
	 viewBox="0 0 500 500" style="enable-background:new 0 0 500 500;" xml:space="preserve">

	<style>
		.k-graphic{
			fill: #ec2543;
			display: none;
		}
		.h-graphic{
			fill: #ec2543 ;
			display: none;
		}
		.is-initial{
			display: block;
		}
		.hide{
			display: none;
		}
		.st2{
			fill: #ec2543;
		}
	</style>

	<g>
		<path id="k01" class="k-graphic is-initial" d="M154.34,232.35c-3.85,0.11-6.06-0.63-7.49-4.94c-2.4-7.26-7.62-12.22-15.08-14.36
		c-1.05-0.3-1.69-0.64-1.88-1c-0.2-0.39-0.11-1.15,0.3-2.34c0.06-0.17,0.14-0.34,0.22-0.51c0.1-0.22,0.21-0.43,0.29-0.65
		c1.13-2.98,2.31-5.95,3.48-8.92c2.69-6.81,5.47-13.84,7.73-20.94c2.58-8.12,5.35-17.82,6.26-28.3c1.18-13.54-1.29-23.91-7.79-32.64
		c-4.3-5.78-11.8-9.51-19.56-9.71c-7.31-0.19-13.89,2.81-18.55,8.45c-3.74,4.52-6.69,9.7-9,15.83c-4.24,11.23-7.29,22.93-9.06,34.77
		c-0.25,1.67-0.72,3.3-1.22,5.02c-0.07,0.25-0.14,0.49-0.21,0.73c-0.64-2.25-1.12-4.14-1.49-5.89c-2.77-13.2-7.62-25.56-14.39-36.72
		c-5.76-9.48-12.49-15.8-20.58-19.32c-8.72-3.8-17.27-3.52-25.42,0.82c-4.77,2.55-8.07,6.54-9.8,11.87
		c-2.14,6.6-1.82,13.57,1.03,22.62c1.88,5.96,4.4,11.79,6.88,17.54c1.89,4.4,3.89,8.83,5.82,13.12c3.34,7.43,6.8,15.12,9.83,22.81
		c1.92,4.86,3.24,10.1,4.52,15.16c0.57,2.27,1.16,4.61,1.81,6.9c0.19,0.69,0.2,1.22,0.02,1.5c-0.19,0.28-0.69,0.49-1.42,0.58
		c-10.34,1.33-17.27,8.03-22.17,13.72C5.26,251.72-0.59,267.58,0.05,284.7c-0.29,11.46,1.91,22.88,6.72,34.91
		c5.47,13.7,13.19,23.66,23.61,30.46c2.12,1.38,3.05,3.17,3.3,6.38c1.09,13.58,7.94,23.66,19.82,29.18
		c9.07,4.21,18.34,6.32,27.72,6.32c5.78,0,11.61-0.8,17.45-2.41c13.54-3.72,21.23-12.18,22.83-25.15c0.2-1.58,0.83-2.37,2.19-2.72
		c0.81-0.21,1.54-0.54,2.26-0.85c0.25-0.11,0.5-0.22,0.74-0.32c18.22-7.54,28.75-21.75,31.3-42.23c0.3-2.37,0.94-3.54,2.45-4.49
		c4.19-2.63,7.86-6.42,11.2-11.6c6.54-10.13,8.28-21.53,9.06-30.34c0.51-5.67-0.07-11.71-1.82-19
		C176.41,242.5,166.52,232.03,154.34,232.35 M79.22,226.49c-0.03,1.28-0.13,2.01-0.31,2.16c-0.08,0.07-0.43,0.22-1.96,0.08
		c-5.83-0.53-11.73-1.45-16.73-2.27c-1.87-0.31-3.78-0.87-5.62-1.41c-0.75-0.22-1.5-0.44-2.26-0.65c-1.5-0.41-2.26-1.18-2.52-2.57
		c-3.6-19.45-11.99-37.42-20.1-54.79l-0.24-0.51c-4.07-8.73-8.69-18.62-10.88-29.03c-1.83-8.72,0.8-15.43,7.42-18.91
		c2.35-1.23,4.94-1.85,7.76-1.85c2.44,0,5.04,0.46,7.8,1.38c8.2,2.74,13.49,9.42,17.18,14.94c7,10.47,10.76,22.19,13.78,33.29
		c4.44,16.32,5.55,33.39,6.62,49.89l0.07,1.14c0,0.92,0.01,1.84,0.01,2.76C79.26,222.24,79.27,224.39,79.22,226.49 M42.28,357
		c0.09-0.02,0.5-0.06,1.65,0.39c9.22,3.62,19.61,5.21,31.76,4.84c1.37-0.03,3.11,0.44,4.76,1.31c7.5,3.97,16.01,4.83,26.75,2.71
		c0.38-0.07,0.76-0.16,1.13-0.24c0.76-0.17,1.48-0.33,2.19-0.41c1.87-0.21,2.18,0.13,2.18,0.13c0,0,0.25,0.4-0.44,2.17
		c-2.17,5.57-5.6,9.37-10.49,11.63c-6.82,3.14-14.07,3.68-22.88,3.52l-0.04,0l-0.04,0c-5.44,0.26-12.44-1.09-18.72-3.6
		c-9.79-3.93-15.73-10.85-17.66-20.59C42.18,357.47,42.31,357.03,42.28,357 M91.74,358.38c-5.89-0.7-10.63-3.49-14.08-8.3
		c-0.37-0.52-0.73-1.05-1.09-1.59c-0.87-1.29-1.77-2.63-2.88-3.79c-0.83-0.86-2.72-1.57-3.75-1.57c-0.02,0-0.04,0-0.06,0
		c-0.62,0.02-0.98,0.29-1.17,0.52c-1.01,1.19-1.67,2.98-1.69,4.54c-0.01,1.04,0.55,1.93,1.04,2.71c0.19,0.31,0.39,0.61,0.53,0.93
		c0.53,1.15,0.6,1.64,0.6,1.8c-0.15,0.06-0.58,0.17-1.69,0.13c-6.01-0.22-11.94-1.29-17.64-3.16c-15.9-5.23-27.57-16.19-34.68-32.6
		c-3.36-7.76-5.31-14.91-5.95-21.83c-0.14-1.53-0.38-3.07-0.62-4.55c-0.41-2.56-0.79-4.98-0.7-7.4c0.66-17.84,7.3-33.02,19.71-45.12
		c7.12-6.94,15.42-8.87,25.38-5.92c8.49,2.52,17.89,3.84,29.59,4.17l0.56,0.01c4.38,0.12,8.91,0.25,13.31,0.65
		c4.49,0.41,7.69,3.1,9.78,8.21c1.53,3.75,0.88,7.24-2.06,10.98c-4.62,5.89-11.27,9.58-20.93,11.62
		c-12.53,2.65-25.76,1.75-41.64-2.85c-1.45-0.42-2.92-0.9-4.35-1.37c-1.31-0.43-2.62-0.86-3.95-1.25c-2.48-0.74-4.37,0.16-5.04,2.41
		c-0.78,2.6,0.19,4.61,2.6,5.38c1.5,0.48,3,1,4.5,1.53c3.72,1.31,7.56,2.66,11.51,3.25c6.86,1.02,11.52,4.94,15.54,9.03
		c6.69,6.8,10.82,15.14,12.62,25.5c0.66,3.81-0.17,7.46-1.06,11.32c-0.31,1.36-0.63,2.76-0.88,4.17c-0.11,0.63-0.25,1.25-0.39,1.87
		c-0.31,1.38-0.63,2.81-0.66,4.29c-0.03,1.41,1.38,3.3,2.74,3.67c1.51,0.41,3.32-0.75,4.06-1.42c1.14-1.03,1.58-2.7,1.71-3.38
		c0.83-4.14,1.62-8.36,2.37-12.43l0.81-4.34l0-0.13c-0.25-11.46-4.45-22.04-12.84-32.36c-0.22-0.27-0.46-0.53-0.69-0.79
		c-0.35-0.38-0.67-0.74-0.92-1.11c-0.51-0.77-0.52-1.1-0.54-1.11c0.04-0.04,0.32-0.25,1.32-0.32c3.27-0.26,6.53-0.46,9.8-0.67
		l2.38-0.15c1.39-0.09,1.76,0.05,1.86,0.13c0.08,0.07,0.27,0.39,0.3,1.76l0.03,0.97c0.08,3.28,0.17,6.68,1.27,10.12
		c2.95,9.22,9.73,14.8,20.75,17.08c5.92,1.22,11.23,0.71,15.77-1.54c1.65-0.82,2.76-0.52,4.25,1.12c2.97,3.28,5.57,5.67,8.17,7.54
		c3.62,2.58,7.9,3.78,12.75,3.55c0.37-0.02,0.66-0.02,0.9-0.02c0.67,0,0.88,0.05,0.91,0.03c0.04,0.09,0.1,0.44-0.15,1.75
		c-1.29,6.85-3.38,14.71-9.14,21.09c-6.54,7.24-15.17,12.01-27.97,15.47C104.77,358.57,98.15,359.15,91.74,358.38 M121.74,296.74
		c-4.13,3.35-10.29,4.12-16.46,2.05c-5.73-1.92-10.09-5.82-11.12-9.95c-0.84-3.4-0.74-7.18-0.64-10.84c0.03-0.96,0.05-1.93,0.06-2.88
		c0.26-0.29,1.06-0.78,1.46-1.03l0.42-0.26c1.2-0.76,2.43-1.48,3.66-2.2c2.26-1.32,4.6-2.68,6.74-4.3c5.3-4.01,8.42-9.17,9.29-15.35
		l0.07-0.47c0.19-1.28,0.41-2.74-0.12-4.01c-0.97-2.31-0.22-4.23,0.86-6.49c1.86-3.9,3.7-7.81,5.54-11.73l3.01-6.39
		c1.29-2.73,2.16-3.08,4.92-1.96c5.87,2.38,9.54,6.86,10.93,13.32c0.85,3.96,1.37,8.08,1.88,12.06c0.23,1.78,0.45,3.56,0.71,5.34
		C143.13,270.28,136.19,285.02,121.74,296.74 M119.63,212.99c-2.13,5.31-4.59,10.61-6.98,15.73c-0.69,1.48-1.38,2.96-2.06,4.45
		c-0.63,1.38-1.05,1.57-1.16,1.6c-0.08,0.02-0.42,0.03-1.23-0.61c-5.1-4.04-11.28-4.79-16.66-5.17l-0.2-0.02
		c-1.39-0.1-2.7-0.19-2.93-0.43c-0.24-0.26-0.31-1.64-0.38-3.21c-0.1-2.26-0.28-4.55-0.44-6.76c-0.27-3.63-0.56-7.38-0.54-11.04
		c0.02-4.58,0.68-9.28,1.3-13.83l0.1-0.73c0.35-2.56,0.82-5.16,1.27-7.68c0.53-2.98,1.09-6.05,1.46-9.12
		c1.34-10.91,3.73-21.83,7.3-33.39c2.65-8.56,5.85-15.13,10.08-20.67c2.64-3.46,6.78-5.52,11.38-5.65c0.17-0.01,0.33-0.01,0.5-0.01
		c4.86,0,9.43,2.08,12.59,5.76c4.82,5.6,7.33,13.54,7.27,22.95c-0.53,7.28-2.01,18.33-6.04,29.65
		C129.94,186.94,125.29,198.84,119.63,212.99 M132.15,300.74c-0.54-1.11-0.18-1.65,1.09-2.99l0.15-0.16
		c4.78-5.11,10.65-12.12,13.7-21.09c3-8.83,4.28-17.6,3.81-26.06l0.01-2.37c0.01-1.82,0.01-3.64-0.01-5.46
		c-0.02-1.56,0.18-1.92,0.26-2c0.11-0.11,0.56-0.25,2.26-0.07c10.68,1.12,16.79,7.37,18.16,18.58c1.66,13.6,0.09,24.92-4.81,34.6
		c-3.81,7.52-8.32,12.2-14.2,14.72C145.22,311.57,135.68,307.98,132.15,300.74"/>	

		<g id="hide01">
			<path class="st2" d="M293.06,286.62c-7.62-1.96-15.26-4.04-22.99-5.57c-0.63-0.08-2.47-0.18-2.89,1.16
			c-0.5,1.62,2.44,3.28,2.44,3.28l0,0c1.32,0.84,2.64,1.68,3.95,2.52c4.82,3.15,9.55,6.43,14.25,9.76c0.59,0.41,1.27,0.75,2,0.94
			C297.89,300.61,300.98,289,293.06,286.62"/>
			<path class="st2" d="M303.45,256.65c-8.01-0.68-16.81-1.1-24.81-0.7c-5.45,0.29-10.97,0.74-16.34,1.85
			c-0.53,0.15-1.57,0.53-1.55,1.14c0.03,0.81,2.11,0.93,2.11,0.93l-0.01,0c9.06,0.47,18.05,2.72,26.74,5.14l5.64,1.76
			c1.18,0.34,6.09,2.29,7.25,2.29C310.72,269.43,311.62,257.53,303.45,256.65"/>
			<path class="st2" d="M297.65,227.6c-2.85,0.39-8.58,1.32-11.41,1.84c-8.32,1.74-17.08,3.5-24.99,6.9c0,0-2.46,1.12-2.25,1.89
			c0.17,0.65,2.14,0.44,2.73,0.36c0.04-0.01,0.09-0.01,0.13-0.02c0.01,0,0.05-0.01,0.05-0.01l0,0c8.19-1.08,16.65-0.44,24.81,0.11
			l5.5,0.56c1.3,0.1,6.06,0.96,7.28,0.68C307.61,238.42,305.84,226.66,297.65,227.6"/>
		</g>

		<path id="h01" class="h-graphic is-initial" d="M489.74,269.39c0.84-1.11,1.57-2.31,2.2-3.58c4.83-9.73,3.89-22.18-1.36-31.6
		c-8.53-15.32-27.52-16.81-43.26-15.82c-10.16,0.64-24.8,2.28-38.04,3c-12.2-23.71-24.09-26.3-47.71-31.45
		c-2.04-0.44-4.17-0.91-6.42-1.41c-20.44-4.57-41.51-0.53-60.1,3.04c-11.5,2.2-23.38,4.48-34.95,8.3
		c-13.31,4.39-22.61,10.34-28.27,18.09c-2.01,1.15-4.14,2.13-5.95,3.53c-3.62,2.79-7.41,5.57-10.27,9.07
		c-4.84,5.93-6.47,13.55-7.37,20.79c-1.82,14.72-1.22,29.26,8.17,42.07c3.22,4.4,6.8,7.76,12.02,9.53c3.32,1.12,6.75,2.49,9.51,4.57
		c5.64,4.24,9.05,12.49,14.27,17.55c21.54,20.85,64.79,39.33,94.24,27.38c6.96-2.83,11.46-8.36,17.9-11.86
		c2.66-1.44,5.62-2.2,8.47-3.22c6.38-2.28,12.54-5.95,17.34-10.76c1.1-1.1,8.66-14.29,6.86-14.26c1.38-0.02,2.76-0.05,4.14-0.05
		c0.79,0,1.58,0,2.38,0c0.23,0,0.46,0,0.69,0.01c0.47,0.01,0.95,0.01,1.42,0.02c19.61,0.36,39.12,4.94,58.85,5.74
		c6.91,0.28,14.02,0.33,20.49-2.12c18.48-7.02,19.39-33.95,5.55-45.92C490.27,269.81,490,269.6,489.74,269.39 M228.82,233.87
		c-3.42,16.04-2.66,32.1-0.27,48.16c0.33,2.2,1.13,4.33,1.68,6.5c0.46,1.84,0.88,3.69,1.32,5.53c-0.49,0.33-0.99,0.67-1.48,1
		c-2.2-2.08-4.88-3.84-6.49-6.3c-4.89-7.47-8.55-15.58-8.03-24.74c0.34-5.92,1.76-11.77,2.53-17.67c0.89-6.8,4.6-11.78,10.5-16.74
		C228.72,231.56,229.06,232.77,228.82,233.87 M430.06,305.48C429.81,305.42,429.59,305.35,430.06,305.48 M490.43,291.98
		c-0.27,7.01-3.88,13.81-10.39,16.11c-3.4,1.2-7.09,1.08-10.69,0.89c-18.99-1.02-37.82-3.82-56.77-5.26
		c-18.56-1.42-36.62-0.45-55.03,1.78c-0.36,0.04-0.71,0.15-1.05,0.28c-2.23,0.54-4.05,2.26-4.18,4.4c-0.18,2.83,1.68,4.95,5.09,4.62
		c0.43,0.07,0.87,0.11,1.34,0.05c9.82-1.19,19.74-1.9,29.64-2.26c-2.49,6.36-6.18,10.55-12,13.7c-6.87,3.73-13.99,5.23-21.46,5.57
		c-4.26,0.19-8.56-0.78-12.85-1.15c-2.69-0.23-5.38-0.33-8.08-0.42c-3.35-0.11-5.7,1.34-5.87,3.55c-0.17,2.18,1.95,3.86,5.4,4.35
		c4.11,0.58,8.22,1.19,12.32,1.84c0.67,0.11,1.28,0.53,2.94,1.24c-3.24,1.95-5.56,4.13-8.24,4.79c-6.23,1.53-12.62,2.86-19.06,0.73
		c-0.99-0.32-2.07-0.34-3.08-0.6c-8.23-2.11-16.68-3.59-24.61-6.52c-11.44-4.23-22.28-9.69-31.81-17.73
		c-7.87-6.64-14.57-14.03-18.8-23.34c-2.21-4.85-3.7-10.18-4.61-15.44c-2.33-13.46-4.33-27.05-2.34-40.71
		c0.94-6.4,4.25-19.24,4.09-19.38c4.5-5.71,12.03-10.26,22.85-13.83c10.96-3.62,22.53-5.83,33.72-7.98
		c17.65-3.38,37.65-7.22,56.09-3.1c2.27,0.51,4.42,0.98,6.47,1.42c21.37,4.65,29.69,6.48,38.77,22.16c-2.61,0-5.08-0.05-7.33-0.21
		c-5.25-0.37-10.52-0.42-15.66-1.14c-2.3,2.46-4.7,4.82-7.11,7.18c2.87,0.7,5.8,1.23,8.77,1.7c15.72,2.45,31.3,0.52,46.96-0.37
		c8.89-0.5,17.8-0.98,26.7-1.12c8.28-0.13,18.04-1.69,25.47,2.81c4.79,2.9,7.91,8.1,9.19,13.55c2.68,11.4-1.02,27-15.88,25.32
		c-19.97-2.26-39.73-5.95-59.92-5.59c-16.91,0.3-33.98,3.22-49.26,10.48c-1.96,0.93-4,2.04-5.06,3.93c-1.06,1.9-0.59,4.79,1.44,5.56
		c1.29,0.49,2.72,0.01,4.01-0.47c30.88-11.41,60.81-12.17,93.12-6.81c6.95,1.15,14.2,1.47,21.18,0.31
		c6.49-1.08,10.86-0.98,13.92,6.03C490.02,285.72,490.56,288.87,490.43,291.98"/>

		<path id="h02" class="k-graphic" d="M116.2,139.4c6.8,0,12.9-0.7,17.3-1c-30.9,62.9-34,133.6-36.7,186.9h0.7c8.2-86.7,23.8-195.1,90.1-195.1
		c30.6,0,47.2,22.1,47.2,45.9c0,5.8-1,11.9-3.1,17.7c-49.6,20.7-74.4,61.2-105.7,127.1h1c11.2-22.4,27.2-47.6,43.5-67.6
		c0,28.2,9.5,49.6,26.5,49.6c11.2,0,21.1-10.5,28.2-21.4c6.1,0,9.2,8.5,9.2,17.3c0,41.1-33.3,83.6-79.2,83.6
		c-23.1,0-35.7-18-41.5-34.7c-9.2,18.4-27.2,34.7-50.3,34.7c-26.9,0-54-22.4-54-91.1c0-30.3,7.5-70.4,15.3-94.2
		c10.9,4.1,22.8,5.8,34,5.8c5.4,0,9.2-0.3,9.2-0.3v-0.7C25.5,196.8,0,174,0,138c0-8.5,1.4-18.4,4.8-29.2
		C36.7,130.5,82.9,139.4,116.2,139.4"/>
		<path id="k02" class="h-graphic" d="M500,144.1c-22.4,39.1-36.7,104.7-36.7,154.7v8.8c9.9-10.9,20.1-27.9,26.5-44.2c5.8,1,8.5,6.1,8.5,13.3
		c0,36.4-19.7,105.7-68.3,105.7c-29.6,0-51.3-28.6-56.1-62.5l-25.5-3.7c-16.3,43.2-44.9,75.1-91.4,75.1c-33.3,0-57.8-23.1-57.8-62.2
		c0-46.9,30.9-77.2,79.2-81.6c0-15.3-0.7-35-2.4-45.5c4.4,1,8.8,1.4,13.3,1.4c10.2,0,20.4-0.7,29.6-4.8l-0.3-0.7
		c-4.4,0.3-8.8,0.7-12.9,0.7c-46.2,0-69.7-28.6-69.7-69.3c0-2.7,0-5.4,0.3-8.2c20.1,7.1,41.1,9.9,62.2,9.9
		c27.9,0,50.3-5.1,73.4-11.6c1.7,11.2,2.7,23.8,2.7,38.1c0,21.4-3.4,54-7.8,79.9h3.7c4.8-37.4,28.9-107.1,82.3-107.1
		C480.3,130.2,500,144.1,500,144.1 M264.1,316.5c-20.7-0.3-36.4,15.6-36.4,21.1c0,2,1.7,4.1,4.1,4.1
		C240.3,341.6,258.7,327.3,264.1,316.5"/>	

		<path id="k03" class="k-graphic" d="M0,279.1h24.7c10.5,0,14.6-6.1,14.6-25.5c0-19.4-3.6-26.3-14.6-26.3H0V108.5h107.1v118H94.6
		c-5.3,0-9.3,2-11.3,6.5c-1.6,2.8-2.8,6.9-3.2,12.1h41.2c18.6,0,19-2.8,25.9-18.6h-25.1v-118h106.7v118.8h-17
		c-23.8,0-49.7,18.6-49.7,26.3c0,7.3,25.5,25.5,50.1,25.5h16.2v112.4H122.1V279.9h25.1c-3.2-14.6-7.7-16.6-25.9-16.6H80.4
		c0.4,4.9,1.6,8.5,2.8,10.9c2,3.6,6.1,5.7,11.3,5.7h12.5v111.6H0V279.1z"/>
		<path id="h03" class="h-graphic" d="M378.7,279.1h22.6c10.5,0,14.1-3.2,14.1-13.3v-2.4H325v2.4c0.8,10.1,3.6,13.3,14.6,13.3h22.6v112.4
		H244.9V279.1h24.7c10.5,0,14.6-6.1,14.6-25.5c0-19.4-3.6-26.3-14.6-26.3h-24.7V108.5h117.2v118.8h-22.6c-10.9,0-13.7,3.6-14.6,14.1
		v3.6h90.5v-3.6c0-10.5-3.6-14.1-14.1-14.1h-22.6V108.5H500v118.8h-27.5c-10.9,0-14.6,6.9-14.6,26.3c0,19.4,4,25.5,14.6,25.5H500
		v112.4H378.7V279.1z"/>

		<path id="k04" class="k-graphic" d="M227.5,286.7v23.7h-49v-24.4h-26.4v-48.9h22.7c1.6-1.6,2.7-2.7,4.3-4.3v-23h24.6v-24.6h23.5v-27.1h-48.5v-24
		h-54.4v22.9c1.3,1.3,2.8,2.8,4.7,4.8H151v48.4h-27.4v24.6H99v23.3H74.5V133.9c-24.8,0-49.2,0-73.5,0c-0.4,0-0.9,0.2-1.3,0.5
		c-0.4,0.3-0.7,0.7-0.5,0.5v26.6h23.3v201.4h3.7v-0.3h49v-48.4h22.4c2-2,3.4-3.4,5.4-5.4v-22.1h20.5v22.2c2,2,3.4,3.4,5.4,5.4h22.4
		v24.6h24.6v23.3h52.1v-47.9h22.4c2-2,3.4-3.4,4.3-4.3v-23.1H227.5z"/>
		<path id="h04" class="h-graphic" d="M499.9,137.2v27h-24v73.3h23.6v27.6h-23.7V338h23.9c0.4,9.3,0,18.2,0.2,27.5H396.4c0.6-8.6-3.2-17.9,3.2-26.8H423
		v-47.9c0.2,0.2-0.1-0.2-0.5-0.5c-0.4-0.3-0.9-0.5-1.3-0.5c-24.3,0-48.7,0-73.5,0v48.4h22.9c7.1,8.8,2.7,18.2,4.4,27.3H271.2V339
		h23.4v-73.3h-23v-27.6h23.2v-73.3h-23.8v-27.5h103.8v22.9c-2.1,2.1-3.1,3.1-4.7,4.7h-22.2v47.9h75.4v-47.9h-22
		c-2.1-2-3.6-3.4-5-4.6v-23H499.9z M347.5,261.8h75.3v-20.4h-75.3V261.8z"/>
	</g>
</svg>













		
	
	

	 

	

	